<?xml version="1.0" encoding="UTF-8" standalone="no"?>
<!-- Created with Inkscape (http://www.inkscape.org/) -->

<svg
   xmlns:dc="http://purl.org/dc/elements/1.1/"
   xmlns:cc="http://creativecommons.org/ns#"
   xmlns:rdf="http://www.w3.org/1999/02/22-rdf-syntax-ns#"
   xmlns:svg="http://www.w3.org/2000/svg"
   xmlns="http://www.w3.org/2000/svg"
   xmlns:sodipodi="http://sodipodi.sourceforge.net/DTD/sodipodi-0.dtd"
   xmlns:inkscape="http://www.inkscape.org/namespaces/inkscape"
   id="svg4136"
   version="1.1"
   inkscape:version="0.91 r13725"
   width="499.5"
   height="300"
   viewBox="0 0 499.5 300"
   sodipodi:docname="bubbly.svg"
   inkscape:export-filename="C:\Users\danie\OneDrive\Documents\GitHub\dtail080.github.io\makerclub21.png"
   inkscape:export-xdpi="90"
   inkscape:export-ydpi="90">
  <sodipodi:namedview
     showguides="true"
     pagecolor="#ffffff"
     bordercolor="#666666"
     borderopacity="1"
     objecttolerance="10"
     gridtolerance="10"
     guidetolerance="10"
     inkscape:pageopacity="0"
     inkscape:pageshadow="2"
     inkscape:window-width="1333"
     inkscape:window-height="826"
     id="namedview4138"
     showgrid="false"
     inkscape:zoom="1.2768975"
     inkscape:cx="276.35794"
     inkscape:cy="113.04837"
     inkscape:window-x="-8"
     inkscape:window-y="-8"
     inkscape:window-maximized="1"
     inkscape:current-layer="svg4136" />
  <metadata
     id="metadata4142">
    <rdf:RDF>
      <cc:Work
         rdf:about="">
        <dc:format>image/svg+xml</dc:format>
        <dc:type
           rdf:resource="http://purl.org/dc/dcmitype/StillImage" />
        <dc:title></dc:title>
      </cc:Work>
    </rdf:RDF>
  </metadata>
  <defs
     id="defs4140" />
  <rect
     y="-2.2952039"
     x="0.31730336"
     height="302.2952"
     width="501.21484"
     id="rect4253"
     style="opacity:1;fill:#00008b;fill-opacity:1;fill-rule:nonzero;stroke:#000000;stroke-width:3.08999991;stroke-linejoin:round;stroke-miterlimit:4;stroke-dasharray:9.26999974, 9.26999973999999940;stroke-dashoffset:0;stroke-opacity:0" />
  <path
     inkscape:connector-curvature="0"
     id="path4146"
     d="m 153.80206,179.69761 c -1.33595,-0.24173 -2.65735,-0.94762 -3.81823,-2.03968 -2.0648,-1.94242 -3.38603,-4.76205 -4.03385,-8.60867 -0.33751,-2.00396 -0.30825,-6.73678 0.0541,-8.75357 0.98718,-5.49443 3.69844,-9.22792 7.38624,-10.1711 1.1162,-0.28548 2.8428,-0.30972 4.05118,-0.0569 1.65642,0.34657 3.54619,1.54557 4.41736,2.80266 l 0.34534,0.49832 -0.9107,0.9107 -0.91069,0.9107 -0.79308,-0.8566 c -0.59864,-0.64656 -1.00314,-0.95899 -1.64989,-1.2743 -3.59792,-1.75409 -7.08588,0.44036 -8.49517,5.34469 -1.12565,3.91725 -1.07582,9.49932 0.11775,13.19175 0.5721,1.76984 1.20617,2.87331 2.25944,3.93206 0.57354,0.57653 1.18888,1.06995 1.52966,1.22658 1.37145,0.63032 3.02218,0.64848 4.30669,0.0474 0.8368,-0.39159 2.02215,-1.42871 2.4718,-2.16269 0.1643,-0.26818 0.32696,-0.48906 0.36146,-0.49083 0.0345,-0.002 0.45903,0.39574 0.94339,0.88335 l 0.88065,0.88657 -0.56225,0.78793 c -1.75586,2.46061 -4.72074,3.57614 -7.95122,2.99162 z m -43.61868,-14.81312 0,-14.27901 4.16303,0 c 4.65029,0 5.27108,0.0789 6.726,0.85431 1.51641,0.80825 2.75278,2.55935 3.15108,4.46298 0.22593,1.07982 0.22724,3.1331 0.003,4.30641 -0.47841,2.50039 -2.11112,4.41356 -4.33433,5.07886 -0.27931,0.0836 -0.50783,0.18823 -0.50783,0.23255 0,0.0443 1.13416,2.87219 2.52035,6.28416 1.3862,3.41198 2.62213,6.459 2.74652,6.77117 l 0.22616,0.56757 -1.53336,0 -1.53335,0 -2.57515,-6.6018 -2.57514,-6.6018 -1.83436,0 -1.83436,0 -0.0309,6.6018 -0.0309,6.6018 -1.37312,0 -1.37312,0 0,-14.279 z m 8.21126,-1.43499 c 1.33606,-0.39676 2.43327,-1.49239 2.93062,-2.92638 0.38228,-1.10221 0.38644,-3.55189 0.008,-4.56606 -0.49659,-1.32996 -1.25321,-2.10817 -2.56102,-2.63414 -0.57453,-0.23107 -0.91771,-0.26316 -3.24146,-0.30314 l -2.5989,-0.0447 0,5.32739 0,5.32739 2.42785,0 c 1.81685,0 2.58068,-0.0454 3.03515,-0.18035 z m 15.08921,1.43499 0,-14.27901 1.43388,0 1.43387,0 0,14.27901 0,14.279 -1.43387,0 -1.43388,0 0,-14.279 z m 36.80279,0 0,-14.27901 1.43388,0 1.43387,0 0,6.21346 0,6.21346 5.49652,0 5.49652,0 0,-6.21346 0,-6.21346 1.37413,0 1.37413,0 0,14.27901 0,14.279 -1.37314,0 -1.37315,0 -0.0308,-6.78103 -0.0308,-6.78104 -5.46665,-0.0311 -5.46664,-0.0311 0,6.81211 0,6.81211 -1.43388,0 -1.43387,0 0,-14.279 z m 24.28124,14.06989 c 0.029,-0.11501 1.66181,-6.54168 3.62849,-14.2815 l 3.57577,-14.07239 1.95736,0.0323 1.95736,0.0323 3.50493,14.15952 c 1.9277,7.78773 3.50688,14.19983 3.50929,14.24913 0.002,0.0493 -0.66028,0.0896 -1.47261,0.0896 l -1.47696,0 -0.74499,-3.07686 c -0.40974,-1.69228 -0.80002,-3.30538 -0.86726,-3.58469 l -0.12228,-0.50783 -4.38757,0 -4.38758,0 -0.81568,3.19635 c -0.44864,1.75798 -0.86315,3.3711 -0.92115,3.58468 l -0.10546,0.38835 -1.44219,0 c -1.31394,0 -1.43751,-0.0186 -1.38947,-0.20911 z m 12.93554,-9.61891 c -0.36546,-1.7108 -3.76244,-16.14378 -3.8111,-16.19243 -0.0343,-0.0343 -0.0888,0.0124 -0.12104,0.10398 -0.0828,0.2354 -3.89021,16.26998 -3.89021,16.38343 0,0.0514 1.7787,0.0934 3.95266,0.0934 l 3.95264,0 -0.0829,-0.38835 z m 12.84935,-4.45098 0,-14.27901 4.16302,0 c 4.59048,0 5.28132,0.0836 6.62981,0.80235 0.9075,0.48368 2.10548,1.73328 2.56113,2.67148 0.64048,1.31878 0.79561,2.11112 0.79368,4.05402 -0.002,1.97218 -0.16092,2.74485 -0.84381,4.10086 -0.74975,1.48883 -1.92206,2.50694 -3.46544,3.00966 l -0.73642,0.23988 2.73787,6.73849 c 1.50584,3.70617 2.73789,6.78573 2.73789,6.84346 0,0.0578 -0.67769,0.0899 -1.50597,0.0715 l -1.50595,-0.0335 -2.57495,-6.60179 -2.57496,-6.6018 -1.83383,0 -1.83381,0 0,6.63167 0,6.63167 -1.37413,0 -1.37413,0 0,-14.279 z m 8.22856,-1.47936 c 2.09226,-0.65117 3.18726,-2.44689 3.17827,-5.21206 -0.006,-2.05627 -0.55533,-3.35541 -1.82651,-4.32499 -0.88651,-0.67615 -1.45881,-0.78865 -4.29291,-0.84386 l -2.53915,-0.0495 0,5.32756 0,5.32755 2.37915,0 c 1.9932,0 2.49626,-0.0365 3.10116,-0.22471 z m 15.07191,1.48902 0,-14.28867 3.86429,0 c 3.46489,0 3.96199,0.0246 4.80945,0.23829 3.77536,0.95178 6.34691,4.06509 7.3354,8.88082 0.63256,3.08158 0.63394,7.29317 0.003,10.31979 -0.83069,3.98725 -2.75278,6.81088 -5.55718,8.16374 -1.74045,0.83959 -1.92819,0.86659 -6.42256,0.92358 l -4.03278,0.0511 0,-14.28868 z m 7.3486,11.69901 c 2.48195,-0.52341 4.44719,-2.48778 5.43789,-5.43547 1.3058,-3.88528 1.18442,-9.72377 -0.2767,-13.30759 -1.02233,-2.50759 -2.70964,-4.11117 -4.91744,-4.67346 -0.5015,-0.12771 -1.32333,-0.18136 -2.77814,-0.18136 l -2.06595,0 0,11.88921 0,11.88921 1.88196,-0.002 c 1.19415,-0.002 2.18764,-0.0665 2.71838,-0.17846 z m 30.05163,-11.70867 0,-14.27901 1.43388,0 1.43387,0 0,12.96462 0,12.96462 4.06265,0 4.06264,0 0,1.31439 0,1.31438 -5.49652,0 -5.49652,0 0,-14.279 z m 23.32483,14.06989 c 0.0288,-0.11501 1.66126,-6.54056 3.62787,-14.279 l 3.57563,-14.0699 1.93773,0 1.93772,0 0.13351,0.49581 c 0.18593,0.69045 6.92559,27.95065 6.92559,28.01221 0,0.0275 -0.66541,0.05 -1.4787,0.05 l -1.47868,0 -0.80264,-3.31583 c -0.44146,-1.82372 -0.8304,-3.43683 -0.86432,-3.58469 l -0.0617,-0.26885 -4.38843,0 -4.38843,0 -0.80273,3.1366 c -0.44152,1.72513 -0.85574,3.33824 -0.92052,3.58469 l -0.11777,0.44808 -1.4432,0 c -1.31472,0 -1.43855,-0.0186 -1.39097,-0.2091 z m 12.93552,-9.61891 c -0.36775,-1.71111 -3.76792,-16.14978 -3.81395,-16.1958 -0.0325,-0.0325 -0.0863,0.0158 -0.11947,0.10735 -0.0799,0.22031 -3.88841,16.27032 -3.88841,16.38666 0,0.0496 1.7787,0.0901 3.95265,0.0901 l 3.95264,0 -0.0835,-0.38835 z m 12.84986,-4.45098 0,-14.27901 3.8756,0 c 4.3883,0 5.05212,0.0807 6.50303,0.79055 1.57707,0.77159 2.77216,2.27552 3.17868,4.00017 0.21364,0.9063 0.24193,3.16637 0.0511,4.07551 -0.0731,0.34826 -0.31287,1.02578 -0.53275,1.50561 -0.48915,1.06742 -1.57276,2.19209 -2.6081,2.70694 -0.66368,0.33003 -0.68807,0.35697 -0.41821,0.462 1.19871,0.46648 1.90508,0.90426 2.6219,1.62492 1.375,1.38238 2.02604,3.18506 2.02604,5.60994 0,2.51715 -0.62914,4.23733 -2.08535,5.70177 -0.60913,0.61257 -1.09011,0.96674 -1.73831,1.28008 -1.48464,0.71763 -2.18932,0.80052 -6.80587,0.80052 l -4.06769,0 0,-14.279 z m 7.89461,11.71866 c 1.67488,-0.35505 2.72539,-1.12806 3.39196,-2.4959 1.12259,-2.30364 0.75536,-5.42313 -0.83907,-7.12772 -0.6964,-0.7445 -1.89909,-1.36553 -3.00093,-1.54955 -0.4537,-0.0758 -1.68879,-0.12091 -2.78647,-0.10182 l -1.97158,0.0343 -0.0311,5.70563 -0.031,5.70563 2.24159,-0.002 c 1.45256,-0.002 2.5179,-0.0606 3.02657,-0.16847 z m -0.0245,-13.79546 c 1.31403,-0.40898 2.43906,-1.50368 2.96186,-2.88202 0.29473,-0.77701 0.29831,-3.06397 0.006,-3.90128 -0.46178,-1.32331 -1.28268,-2.17833 -2.58756,-2.69512 -0.59011,-0.2337 -0.93521,-0.26761 -3.14233,-0.30871 l -2.47941,-0.0462 0,5.029 0,5.02901 2.25966,0 c 1.87625,0 2.38217,-0.0382 2.98167,-0.22471 z m 15.78887,2.0768 0,-14.27901 3.91328,0.002 c 4.42547,0.002 5.01754,0.0747 6.48231,0.79236 1.6006,0.78419 2.81043,2.31871 3.23612,4.10464 0.20487,0.85949 0.20658,3.22809 0.003,4.06264 -0.42304,1.7336 -1.54871,3.23542 -3.04859,4.06731 -0.46621,0.25857 -0.75978,0.47084 -0.65239,0.47172 0.1074,8e-4 0.62142,0.21487 1.14228,0.47557 1.5547,0.77815 2.60718,2.0389 3.29284,3.94443 0.3075,0.85456 0.42601,3.61485 0.21016,4.89457 -0.34702,2.05733 -1.78767,4.00173 -3.64219,4.91574 -1.50849,0.74346 -2.20358,0.82695 -6.88462,0.82695 l -4.05213,0 0,-14.279 z m 7.94398,11.70833 c 2.18427,-0.46269 3.41011,-1.73262 3.90645,-4.047 0.19685,-0.91784 0.0579,-2.85593 -0.26651,-3.71818 -0.37322,-0.99184 -0.6923,-1.46341 -1.47311,-2.17701 -1.17485,-1.07375 -2.42308,-1.37675 -5.45072,-1.32311 l -1.97158,0.0349 -0.0311,5.55627 c -0.0171,3.05594 -0.006,5.62348 0.0261,5.70563 0.0861,0.22464 4.16657,0.20019 5.26048,-0.0316 z m 0.33626,-13.90324 c 0.94285,-0.37567 1.88684,-1.31214 2.38684,-2.3678 0.37335,-0.78824 0.38566,-0.86406 0.38454,-2.36769 -0.002,-1.93049 -0.23716,-2.64546 -1.18224,-3.58559 -1.13644,-1.13051 -2.03709,-1.37322 -5.09568,-1.37322 l -2.14493,0 0,5.02721 0,5.02721 2.47941,-0.0421 c 2.2537,-0.0382 2.54246,-0.0672 3.17206,-0.31806 z m 15.37869,2.19491 0,-14.27901 5.79525,0 5.79524,0 0,1.19343 0,1.19343 -4.39124,0.0313 -4.39124,0.0313 -0.0312,4.98869 -0.0311,4.98869 4.12369,0 4.12371,0 0,1.25464 0,1.25464 -4.12359,0 -4.12358,0 0.0311,5.52639 0.0311,5.52639 4.57048,0.0313 4.57047,0.0313 0,1.25321 0,1.25322 -5.97448,0 -5.97447,0 0,-14.279 z m -325.689285,0.60249 c -0.457826,-0.19914 -0.636728,-0.50273 -0.636728,-1.08045 0,-0.56636 0.161728,-0.85009 0.619486,-1.08681 0.741132,-0.38325 1.689455,0.0564 1.838796,0.85242 0.09937,0.52972 -0.219402,1.10595 -0.729782,1.31921 -0.494334,0.20654 -0.607953,0.20609 -1.091772,-0.005 z m 6.571927,0 c -0.457826,-0.19914 -0.636729,-0.50273 -0.636729,-1.08045 0,-0.56636 0.161729,-0.85009 0.619486,-1.08681 0.741133,-0.38325 1.689455,0.0564 1.838797,0.85242 0.09937,0.52972 -0.219402,1.10595 -0.729782,1.31921 -0.494335,0.20654 -0.607953,0.20609 -1.091772,-0.005 z m 6.571927,0 c -0.463029,-0.20141 -0.636729,-0.50307 -0.636729,-1.10576 0,-0.55429 0.225909,-0.90645 0.710187,-1.10705 0.737179,-0.30534 1.557544,0.12647 1.758064,0.9254 0.112547,0.44842 -0.250905,1.08753 -0.733031,1.28898 -0.501385,0.20949 -0.613677,0.20933 -1.098491,-0.002 z m 6.532645,-0.0351 c -0.874921,-0.43707 -0.851159,-1.71044 0.03985,-2.13533 0.772998,-0.36862 1.619247,0.0395 1.830956,0.88303 0.112547,0.44842 -0.250905,1.08752 -0.73303,1.28897 -0.527075,0.22021 -0.63019,0.21689 -1.137773,-0.0366 z m 6.597326,0.0293 c -0.848513,-0.36866 -0.908565,-1.60001 -0.102698,-2.1058 0.74311,-0.4664 1.727102,-0.0563 1.944651,0.81049 0.116173,0.46286 -0.239502,1.09794 -0.72958,1.30271 -0.503599,0.21041 -0.612726,0.20969 -1.112372,-0.007 z m 6.571927,0 c -0.537794,-0.23366 -0.80831,-0.87112 -0.616415,-1.45258 0.152803,-0.46299 0.712967,-0.87578 1.188463,-0.87578 0.164298,0 0.467934,0.10318 0.674747,0.22927 0.821703,0.50106 0.745884,1.73867 -0.128906,2.10418 -0.509405,0.21285 -0.617426,0.21234 -1.117889,-0.005 z m 6.571926,0 c -0.537794,-0.23366 -0.80831,-0.87112 -0.616414,-1.45258 0.152803,-0.46299 0.712967,-0.87578 1.188462,-0.87578 0.164298,0 0.467935,0.10318 0.674747,0.22927 0.821704,0.50106 0.745884,1.73867 -0.128905,2.10418 -0.509406,0.21285 -0.617427,0.21234 -1.11789,-0.005 z m 6.571927,0 c -0.537795,-0.23366 -0.808311,-0.87112 -0.616415,-1.45258 0.152803,-0.46299 0.712967,-0.87578 1.188462,-0.87578 0.164298,0 0.467935,0.10318 0.674747,0.22927 0.821704,0.50106 0.745885,1.73867 -0.128905,2.10418 -0.509405,0.21285 -0.617426,0.21234 -1.117889,-0.005 z m 302.80755,0.0629 c -0.13879,-0.0561 -0.36732,-0.2481 -0.50784,-0.42674 -0.76296,-0.96995 0.37404,-2.32759 1.54361,-1.84314 0.48429,0.2006 0.71019,0.55275 0.71019,1.10705 0,0.61267 -0.17584,0.90729 -0.66297,1.11083 -0.45307,0.18931 -0.71237,0.20176 -1.083,0.052 z m 6.57193,0 c -0.74587,-0.30136 -0.98102,-1.27868 -0.4574,-1.90098 0.52515,-0.6241 1.58173,-0.60857 2.02888,0.0298 0.22928,0.32733 0.22264,1.08676 -0.0127,1.44584 -0.29353,0.44798 -1.01535,0.64494 -1.55885,0.42532 z m 6.57192,0 c -0.74587,-0.30136 -0.98102,-1.27868 -0.45739,-1.90098 0.52515,-0.6241 1.58172,-0.60857 2.02888,0.0298 0.22928,0.32733 0.22263,1.08676 -0.0127,1.44584 -0.29352,0.44798 -1.01534,0.64494 -1.55884,0.42532 z m 6.57192,0 c -0.74586,-0.30136 -0.98101,-1.27868 -0.45738,-1.90098 0.52515,-0.6241 1.58172,-0.60857 2.02887,0.0298 0.22928,0.32733 0.22264,1.08676 -0.0127,1.44584 -0.29352,0.44798 -1.01534,0.64494 -1.55885,0.42532 z m 6.57193,0 c -0.74587,-0.30136 -0.98101,-1.27868 -0.45739,-1.90098 0.52515,-0.6241 1.58173,-0.60857 2.02888,0.0298 0.22928,0.32733 0.22263,1.08676 -0.0127,1.44584 -0.29353,0.44798 -1.01535,0.64494 -1.55886,0.42532 z m 6.57192,0 c -0.74586,-0.30136 -0.98101,-1.27868 -0.45738,-1.90098 0.77111,-0.91641 2.20336,-0.42013 2.20336,0.76346 0,0.9104 -0.8835,1.486 -1.74598,1.13752 z m 6.57193,0 c -0.74586,-0.30136 -0.98101,-1.27868 -0.45738,-1.90098 0.7711,-0.91641 2.20335,-0.42013 2.20335,0.76346 0,0.9104 -0.8835,1.486 -1.74597,1.13752 z m 6.57193,0 c -0.13879,-0.0561 -0.36732,-0.2481 -0.50784,-0.42674 -0.75838,-0.96414 0.37326,-2.32792 1.53303,-1.84753 0.9386,0.38878 0.97546,1.77143 0.0589,2.2064 -0.43046,0.20426 -0.70408,0.22139 -1.08403,0.0679 z m -150.48374,-5.47171 c 0,-0.1168 1.53085,-8.83572 1.61498,-9.19807 0.0596,-0.25673 0.11633,-0.26885 1.25732,-0.26885 1.17815,0 1.19401,0.004 1.1319,0.26885 -0.11278,0.48122 -1.97288,9.19731 -1.97288,9.24449 0,0.0252 -0.45705,0.0458 -1.01566,0.0458 -0.55862,0 -1.01566,-0.0415 -1.01566,-0.0922 z m 85.36483,-11.93227 c 0.0412,-0.10726 0.84002,-1.42367 1.77525,-2.92533 l 1.70041,-2.7303 1.47032,-0.002 1.47033,-0.002 -0.45467,0.63228 c -0.25006,0.34776 -1.20744,1.66285 -2.12751,2.92243 l -1.67285,2.29012 -1.11807,0.005 c -0.98621,0.005 -1.10923,-0.0179 -1.04321,-0.18996 z m -108.1276,-21.2 c -3.02049,-0.2416 -5.9666,-1.28227 -8.53331,-3.01426 -0.88911,-0.59996 -2.7936,-2.33397 -3.01233,-2.74267 -0.0952,-0.17796 0.22119,-0.62947 1.8094,-2.58169 l 1.92484,-2.366 0.91847,0.9472 c 2.32184,2.39449 5.33664,3.71707 8.4463,3.70536 2.19622,-0.008 3.74882,-0.62378 5.2113,-2.06595 0.97706,-0.96349 1.56563,-1.98637 1.96002,-3.40632 0.30466,-1.09694 0.37789,-3.98512 0.12936,-5.10222 -0.71348,-3.20688 -3.06278,-5.52859 -8.43583,-8.33671 -2.8059,-1.46644 -4.53176,-2.635921 -6.05473,-4.102791 -2.52386,-2.43092 -3.71842,-4.937293 -4.11142,-8.626494 -0.24442,-2.294255 0.0732,-5.629201 0.71342,-7.489901 1.64138,-4.770772 5.27222,-7.950581 10.11875,-8.861808 3.00155,-0.564341 6.68895,-0.225867 9.34388,0.857704 1.82403,0.744444 3.75164,2.083492 4.74582,3.296765 0.40922,0.499395 0.43521,0.571423 0.27364,0.758504 -0.0982,0.113698 -0.94545,1.120812 -1.88281,2.238039 -0.93737,1.117228 -1.7479,2.078705 -1.80121,2.136625 -0.0533,0.05791 -0.40598,-0.228551 -0.78375,-0.636592 -1.78293,-1.925782 -4.00252,-2.874163 -6.72662,-2.874163 -3.5763,0 -6.19597,1.950158 -7.30324,5.436776 -0.37546,1.18223 -0.46949,3.836905 -0.18172,5.130364 0.40401,1.815971 1.62472,3.69124 3.2568,5.00314 1.1563,0.929477 2.30094,1.642774 4.47632,2.789468 3.46764,1.82788 5.32381,3.099824 6.98218,4.784534 1.73148,1.75899 2.99416,3.94506 3.59589,6.22556 0.42001,1.59181 0.52671,5.04611 0.2169,7.0219 -1.2251,7.81306 -7.28341,12.51657 -15.29632,11.87563 z m 125.86459,-0.002 c -8.51279,-0.7167 -14.67002,-8.3844 -16.40144,-20.42504 -0.51743,-3.59818 -0.55143,-9.192459 -0.0774,-12.743171 0.99137,-7.426882 3.47771,-13.056091 7.43377,-16.830496 2.71433,-2.589682 5.57962,-3.914383 9.21282,-4.259317 3.8387,-0.364443 8.17863,0.751876 10.96252,2.81977 0.64647,0.480213 1.99968,1.842211 2.59461,2.611461 0.53025,0.685639 0.53403,0.697054 0.31529,0.952738 -0.12176,0.142328 -1.04653,1.157655 -2.05503,2.256282 l -1.83367,1.997499 -0.69998,-0.870131 c -1.61609,-2.008915 -3.62268,-3.184047 -6.17689,-3.617395 -1.35198,-0.229381 -2.86697,-0.119124 -4.21278,0.30661 -2.36354,0.74767 -4.76383,3.129798 -6.20036,6.153458 -3.27019,6.883164 -3.65678,18.994922 -0.85643,26.831872 0.52238,1.46193 1.3851,3.22648 2.07272,4.23948 0.7083,1.04344 2.15843,2.50846 3.10746,3.13938 2.36646,1.57321 5.67497,1.84592 8.30164,0.68429 1.36501,-0.60368 3.27079,-2.26189 4.20597,-3.6596 l 0.45603,-0.68159 1.60389,1.757 c 0.88213,0.96634 1.77575,1.95306 1.98583,2.1927 l 0.38195,0.4357 -0.69949,0.93843 c -1.30884,1.75587 -3.36132,3.49629 -5.24295,4.4458 -2.14594,1.08289 -5.19008,1.57583 -8.17802,1.32428 z M 50.916558,99.822392 l 0,-27.004643 5.842035,0 5.842036,0 0.06647,0.268852 c 0.03656,0.147872 1.737839,8.815534 3.780628,19.261488 2.042789,10.445951 3.739359,19.017831 3.770155,19.048631 0.0308,0.0308 0.05599,-0.003 0.05599,-0.075 0,-0.072 1.581873,-8.56328 3.515272,-18.869397 1.933399,-10.306119 3.552492,-18.940037 3.597985,-19.186488 l 0.08271,-0.448086 5.602711,0 5.602712,0 0,27.004643 0,27.004648 -4.062231,0 -4.06223,0 -0.03029,-16.75009 -0.03029,-16.750051 -3.385521,16.301961 c -1.862037,8.96608 -3.436891,16.5036 -3.499676,16.75005 l -0.114154,0.44809 -3.281357,0 c -1.804746,0 -3.281358,-0.0155 -3.281358,-0.0345 0,-0.16344 -7.770504,-33.346597 -7.820483,-33.396576 -0.03621,-0.03625 -0.06583,7.470966 -0.06583,16.682616 l 0,16.74846 -4.062645,0 -4.062646,0 0,-27.004648 z m 50.711022,26.676048 c 0.0365,-0.18073 2.0866,-12.23872 4.55571,-26.795537 2.4691,-14.556817 4.51726,-26.561034 4.55146,-26.676047 0.0581,-0.195278 0.4312,-0.209107 5.64118,-0.209107 l 5.57899,0 4.46394,26.676047 c 2.45517,14.671824 4.49132,26.823914 4.52476,27.004644 l 0.0609,0.3286 -4.29027,0 -4.29027,0 -0.95233,-6.18359 -0.95234,-6.18358 -4.24088,0 -4.24087,0 -0.97915,6.09396 c -0.53853,3.35169 -0.98259,6.1343 -0.98679,6.18359 -0.004,0.0493 -1.92076,0.0896 -4.25902,0.0896 l -4.25137,0 0.0664,-0.3286 z m 17.63143,-20.25348 c -0.003,-0.14788 -0.66505,-4.8931 -1.47106,-10.544958 -1.01874,-7.143572 -1.48951,-10.148616 -1.54433,-9.857889 -0.0434,0.230017 -0.69972,4.827378 -1.45855,10.216358 -0.75883,5.388979 -1.4099,9.946009 -1.44682,10.126739 l -0.0671,0.3286 2.99674,0 2.99673,0 -0.006,-0.26885 z m 24.62044,-6.422568 0,-27.004643 4.06264,0 4.06265,0 0,9.499421 c 0,5.224682 0.0403,9.49833 0.0896,9.497007 0.0493,-0.0016 2.2942,-4.275727 4.98869,-9.498656 l 4.89908,-9.496234 4.33149,-7.17e-4 c 2.38232,-4.78e-4 4.3315,0.0227 4.3315,0.0513 0,0.0286 -2.4824,4.958148 -5.51644,10.954493 -3.03404,5.996337 -5.51643,10.963463 -5.51643,11.038056 0,0.07456 2.91256,7.26438 6.47235,15.97731 3.55979,8.71288 6.47235,15.87442 6.47235,15.91448 0,0.0401 -2.14497,0.0729 -4.7666,0.0729 l -4.76662,0 -0.20336,-0.50783 c -0.11184,-0.27931 -2.00464,-5.13208 -4.2062,-10.78393 -2.20156,-5.65186 -4.04786,-10.32343 -4.10288,-10.38127 -0.0552,-0.058 -0.63962,0.97294 -1.3033,2.29903 l -1.20324,2.4042 0,8.4849 0,8.4849 -4.06265,0 -4.06264,0 0,-27.004644 z m 41.46288,0 0,-27.004643 11.59048,0 11.59049,0 0,4.122391 0,4.12239 -7.52784,0 -7.52784,0 0,7.348608 0,7.348609 5.49652,0 5.49652,0 0,4.062645 0,4.062648 -5.49652,0 -5.49652,0 0,7.40835 0,7.40835 7.52784,0 7.52784,0 0,4.06265 0,4.06265 -11.59049,0 -11.59048,0 0,-27.004648 z m 34.77146,0 0,-27.004643 6.49483,0 c 6.8138,0 8.9362,0.09623 10.55722,0.478668 4.69026,1.106545 7.38451,4.038548 8.34415,9.080498 0.15037,0.789993 0.20753,2.117451 0.25731,5.974478 0.0684,5.301808 -0.0185,7.027158 -0.43633,8.662994 -0.48186,1.886422 -1.93121,4.361323 -3.37794,5.768183 l -0.52512,0.51064 3.00253,11.73704 3.00254,11.73704 -4.36182,0.0314 c -2.39899,0.0172 -4.39609,-0.01 -4.43799,-0.0598 -0.0419,-0.0501 -1.17262,-4.62127 -2.51269,-10.15811 l -2.43647,-10.067 -2.72247,0 -2.72246,0 0,10.15662 0,10.15661 -4.06264,0 -4.06265,0 0,-27.004642 z m 13.65207,-1.43581 c 0.44382,-0.06421 1.05315,-0.232424 1.35408,-0.373875 0.86317,-0.405747 1.7823,-1.325944 2.22734,-2.229931 l 0.39122,-0.794685 0,-5.319803 0,-5.319795 -0.28597,-0.709872 c -0.37803,-0.938399 -1.17875,-1.737075 -2.11088,-2.105486 -0.66969,-0.264677 -0.89083,-0.283134 -3.90622,-0.325959 l -3.19635,-0.04541 0,8.593451 c 0,4.726402 0.0359,8.629297 0.0797,8.67311 0.12325,0.123258 4.54013,0.08939 5.44711,-0.04174 z m 102.55933,27.586848 c -0.2081,-0.62218 -1.64523,-6.33128 -1.6041,-6.37239 0.0284,-0.0284 0.38374,0.0374 0.78975,0.14624 0.40601,0.10878 0.75852,0.17345 0.78335,0.1437 0.0619,-0.0742 10.98865,-40.04154 11.00399,-40.249826 0.008,-0.104418 -0.24104,-0.238398 -0.66546,-0.358469 -0.37275,-0.105454 -0.70682,-0.221112 -0.74239,-0.257014 -0.0356,-0.03593 1.00675,-1.135709 2.31628,-2.444 1.30952,-1.308291 2.40051,-2.354327 2.42442,-2.32451 0.0655,0.08171 1.73196,6.501316 1.69802,6.541241 -0.0162,0.01904 -0.36038,-0.05743 -0.76492,-0.16989 -0.44169,-0.122796 -0.77385,-0.160483 -0.83151,-0.09434 -0.0528,0.06054 -2.42539,8.632739 -5.2724,19.049242 -2.847,10.416507 -5.32359,19.467307 -5.50353,20.112887 -0.22599,0.81085 -0.28502,1.18785 -0.19089,1.21924 0.075,0.025 0.45167,0.1342 0.83712,0.24269 l 0.70085,0.19725 -0.70085,0.7138 c -1.85926,1.89364 -4.22732,4.05489 -4.27773,3.90415 z m 31.48794,-2.18919 c -1.63994,-1.6269 -2.35219,-2.40989 -2.25033,-2.4738 0.082,-0.0515 0.43677,-0.15839 0.78845,-0.23768 0.62602,-0.14114 0.63807,-0.15185 0.57391,-0.51078 -0.10909,-0.61044 -10.91528,-39.980794 -10.99586,-40.061362 -0.0412,-0.04118 -0.40442,0.01681 -0.80723,0.128762 -0.40282,0.111994 -0.74825,0.187758 -0.76764,0.168369 -0.0405,-0.04055 1.62706,-6.458555 1.69947,-6.540588 0.0263,-0.02979 1.11929,1.016219 2.42881,2.32451 1.30952,1.308291 2.35185,2.408097 2.31628,2.444 -0.0356,0.03593 -0.36964,0.151696 -0.74238,0.257317 -0.54762,0.155169 -0.67299,0.237067 -0.65306,0.426625 0.0303,0.288185 10.91805,40.105797 10.98721,40.181367 0.0272,0.0297 0.3817,-0.0349 0.78772,-0.1437 0.40601,-0.10878 0.75798,-0.17802 0.78214,-0.15386 0.0534,0.0534 -1.5231,6.14538 -1.65481,6.39454 -0.0704,0.13315 -0.68339,-0.40878 -2.49268,-2.20372 z m -64.29562,-23.961848 0,-25.929236 7.28021,0 c 4.55366,0 7.62717,0.04827 8.20662,0.128849 1.54795,0.215296 3.15375,0.677936 4.34177,1.250889 2.64587,1.276029 4.36962,3.060374 5.75111,5.953321 1.65536,3.466448 1.87961,9.088727 0.52568,13.17989 -1.35799,4.103431 -4.08635,6.995735 -7.8773,8.350675 -1.93557,0.69179 -2.68835,0.76979 -7.42994,0.76979 l -4.22622,0 0,11.11253 0,11.11253 -3.28597,0 -3.28596,0 0,-25.929238 z m 15.12469,-2.182843 c 3.05104,-1.023628 4.83074,-3.669517 5.18092,-7.702585 0.2195,-2.527897 -0.10791,-4.780514 -0.95235,-6.552146 -0.79731,-1.672743 -2.46635,-3.011162 -4.48093,-3.593291 -0.58904,-0.170209 -1.37163,-0.214149 -4.50661,-0.253063 l -3.79379,-0.04708 0,9.276924 0,9.276923 3.79379,-0.04094 c 3.75608,-0.04055 3.80339,-0.04413 4.75897,-0.364746 z m 107.47161,2.182843 0,-25.929236 10.93329,0 10.9333,0 0,2.927494 0,2.927494 -7.76764,0 -7.76767,0 0.0307,8.155164 0.0307,8.155163 7.19925,0.03083 7.19924,0.03083 0,2.747328 0,2.747325 -7.22912,0 -7.22912,0 0,9.08121 0,9.08121 8.12529,0 8.1253,0 0,2.98724 0,2.98724 -11.29177,0 -11.29176,0 0,-25.92924 z m -79.40082,13.007768 c -1.57726,-0.91332 -2.8792,-1.69994 -2.89319,-1.74803 -0.0201,-0.069 5.31057,-3.19527 5.71811,-3.35351 0.0564,-0.0219 0.10257,0.34104 0.10257,0.80655 l 0,0.84639 3.76393,0 3.76392,0 0,-0.84921 c 0,-0.69882 0.0311,-0.83725 0.176,-0.78168 0.22579,0.0867 5.59238,3.17782 5.70092,3.28377 0.0449,0.0438 -1.24555,0.84544 -2.86775,1.78132 l -2.94943,1.7016 -0.0351,-0.8353 -0.0351,-0.8353 -3.75345,0 -3.75346,0 -0.0351,0.822 -0.0351,0.82199 -2.86775,-1.66059 z M 184.14322,48.949733 c -0.002,-0.04929 1.62423,-6.501686 3.61456,-14.338659 l 3.61877,-14.249042 1.93942,-8.9e-5 c 1.9125,-8.7e-5 1.94033,0.0037 2.00401,0.268762 0.0355,0.147869 1.62276,6.576968 3.52721,14.286887 1.90446,7.70992 3.46266,14.041373 3.46266,14.069897 0,0.02853 -0.66465,0.05186 -1.47697,0.05186 l -1.47696,0 -0.74499,-3.076856 c -0.40975,-1.692271 -0.80003,-3.30538 -0.86728,-3.584687 l -0.12226,-0.507828 -4.40234,0 -4.40231,0 -0.11632,0.448086 c -0.064,0.246447 -0.47745,1.859556 -0.91885,3.584687 l -0.80254,3.136601 -1.41581,0 c -0.77869,0 -1.41768,-0.04032 -1.42,-0.08962 z m 12.96442,-9.7384 c -0.37532,-1.752966 -3.76635,-16.147879 -3.81558,-16.197111 -0.0349,-0.03488 -0.0821,-0.04103 -0.10492,-0.01364 -0.0598,0.07165 -3.90222,16.270888 -3.90191,16.449731 0,0.116475 0.87058,0.149362 3.9529,0.149362 l 3.95265,0 -0.0831,-0.388341 z m 14.28341,-3.315836 0,-13.143852 -2.74826,0 -2.74826,0 0,-1.194896 0,-1.194896 6.9304,0 6.93039,0 0,1.192693 0,1.192694 -2.77813,0.03208 -2.77813,0.03207 -0.0304,13.11398 -0.0304,13.113981 -1.37361,0 -1.3736,0 0,-13.143853 z m 15.65314,-1.194896 0,-14.338748 5.7355,0 5.73549,0 0,1.254641 0,1.25464 -4.36136,0 -4.36137,0 0,5.018562 0,5.018562 4.12239,0 4.12239,0 0,1.194896 0,1.194895 -4.12239,0 -4.12239,0 0,5.556265 0,5.556265 4.60034,0 4.60035,0 0,1.314386 0,1.314385 -5.97448,0 -5.97447,0 0,-14.338749 z m 20.91067,0 0,-14.338748 1.43335,0 1.43333,0 0.0304,12.994491 0.0304,12.994491 4.03278,0.03147 4.03277,0.03146 0,1.312796 0,1.312796 -5.49652,0 -5.49652,0 0,-14.338749 z m 18.52088,0 0,-14.338748 1.43388,0 1.43387,0 0,14.338748 0,14.338749 -1.43387,0 -1.43388,0 0,-14.338749 z m 13.38284,0 0,-14.338748 5.79524,0 5.79524,0 0,1.254641 0,1.25464 -4.42242,0 -4.42243,0 0.0311,4.98869 0.0312,4.988689 4.09252,0.03144 4.09251,0.03144 0,1.191757 0,1.191758 -4.09251,0.03144 -4.09252,0.03144 -0.0311,5.526392 -0.0311,5.526393 4.60155,0 4.60154,0 0,1.314385 0,1.314385 -5.97448,0 -5.97448,0 0,-14.338748 z m 21.03016,0 0,-14.338748 3.8729,0 c 5.02781,0 5.97464,0.16857 7.64606,1.361272 1.42193,1.014667 2.33801,2.753713 2.59267,4.921843 0.36905,3.141911 -0.61227,6.050509 -2.53644,7.517895 -0.63013,0.480543 -1.78947,1.008265 -2.22513,1.01286 -0.14787,0.0016 -0.26885,0.0269 -0.26885,0.05632 0,0.02942 1.23671,3.101799 2.74826,6.827517 1.51154,3.725718 2.74826,6.821934 2.74826,6.88048 0,0.05855 -0.67705,0.0914 -1.50454,0.07301 l -1.50455,-0.03344 -2.57563,-6.601799 -2.57562,-6.601799 -1.83456,0 -1.83457,0 0,6.631672 0,6.631671 -1.37413,0 -1.37413,0 0,-14.338749 z m 8.32059,-1.48555 c 1.96199,-0.686565 3.07671,-2.551059 3.07671,-5.146121 0,-2.062316 -0.6398,-3.567097 -1.87099,-4.400547 -1.03304,-0.69931 -1.63291,-0.821315 -4.35839,-0.886425 l -2.41966,-0.0578 0,5.401218 0,5.401217 2.47941,-0.04843 c 1.98704,-0.03881 2.60124,-0.09106 3.09293,-0.263115 z M 51.407668,36.087217 c -0.681635,-0.377801 -0.813289,-1.321799 -0.261323,-1.873765 0.29268,-0.292679 0.445858,-0.349278 0.945295,-0.349278 0.518856,0 0.636066,0.0476 0.905363,0.367637 0.329646,0.391761 0.41045,1.012524 0.186314,1.431325 -0.276716,0.51705 -1.207035,0.739239 -1.775649,0.424081 z m 6.571927,0 c -0.681636,-0.377801 -0.81329,-1.321799 -0.261323,-1.873765 0.292679,-0.292679 0.445858,-0.349278 0.945294,-0.349278 0.518856,0 0.636067,0.0476 0.905364,0.367637 0.900767,1.0705 -0.356771,2.538563 -1.589335,1.855406 z m 6.571926,0 c -0.681636,-0.377801 -0.813289,-1.321799 -0.261322,-1.873765 0.776519,-0.77652 2.163532,-0.257966 2.157346,0.806555 -0.0056,0.957417 -1.041789,1.540675 -1.896023,1.06721 z m 6.571926,0 c -0.681634,-0.377801 -0.813289,-1.321799 -0.261322,-1.873765 0.776518,-0.77652 2.163532,-0.257966 2.157346,0.806555 -0.0056,0.957417 -1.041789,1.540675 -1.896024,1.06721 z m 6.571927,0 c -0.681636,-0.377801 -0.81329,-1.321799 -0.261323,-1.873765 0.285975,-0.285976 0.450061,-0.349278 0.905363,-0.349278 0.455302,0 0.619389,0.0633 0.905363,0.349278 0.995707,0.995705 -0.302038,2.565126 -1.549403,1.873765 z m 6.571927,0 c -0.681637,-0.377801 -0.81329,-1.321799 -0.261323,-1.873765 0.285974,-0.285976 0.45006,-0.349278 0.905363,-0.349278 0.455301,0 0.619388,0.0633 0.905363,0.349278 0.995706,0.995705 -0.302038,2.565126 -1.549404,1.873765 z m 6.618518,0.02806 C 90.148311,35.7097 89.99968,34.79168 90.577904,34.213456 c 0.285974,-0.285976 0.450061,-0.349278 0.905363,-0.349278 0.984821,0 1.521246,0.837494 1.111887,1.735938 -0.25497,0.559601 -1.142263,0.827016 -1.709335,0.515165 z m 6.571926,0 C 96.720238,35.7097 96.571606,34.79168 97.14983,34.213456 c 0.285975,-0.285976 0.450061,-0.349278 0.905363,-0.349278 0.984821,0 1.521247,0.837494 1.111887,1.735938 -0.25497,0.559601 -1.142263,0.827016 -1.709335,0.515165 z m 6.571925,0 c -0.71093,-0.390967 -0.87161,-1.261002 -0.34785,-1.883466 0.2693,-0.320041 0.38651,-0.367637 0.90537,-0.367637 0.49944,0 0.65261,0.0566 0.94529,0.349278 0.96851,0.968504 -0.2942,2.566477 -1.50281,1.901825 z m 6.48531,-0.04757 c -0.6557,-0.355838 -0.77878,-1.220818 -0.26123,-1.835893 0.2693,-0.320041 0.38651,-0.367637 0.90536,-0.367637 0.49944,0 0.65262,0.0566 0.9453,0.349278 1.01795,1.017949 -0.29912,2.554474 -1.58943,1.854254 z m 6.57193,0 c -0.6557,-0.355838 -0.77878,-1.220818 -0.26123,-1.835893 0.26929,-0.320041 0.3865,-0.367637 0.90536,-0.367637 0.49944,0 0.65262,0.0566 0.9453,0.349278 1.01795,1.017949 -0.29913,2.554474 -1.58943,1.854254 z m 6.57193,0 c -0.65571,-0.355838 -0.77879,-1.220818 -0.26124,-1.835893 0.2693,-0.320041 0.38651,-0.367637 0.90537,-0.367637 0.49943,0 0.65261,0.0566 0.94529,0.349278 1.01795,1.017949 -0.29912,2.554474 -1.58942,1.854254 z m 6.57192,0 c -0.6557,-0.355838 -0.77878,-1.220818 -0.26123,-1.835893 0.2693,-0.320041 0.38651,-0.367637 0.90536,-0.367637 0.49945,0 0.65262,0.0566 0.9453,0.349278 1.01795,1.017949 -0.29912,2.554474 -1.58943,1.854254 z m 6.57193,0 c -0.6557,-0.355839 -0.77878,-1.220819 -0.26123,-1.835894 0.26929,-0.320042 0.3865,-0.367637 0.90536,-0.367637 0.49944,0 0.65262,0.0566 0.9453,0.349277 1.01795,1.01795 -0.29912,2.554475 -1.58943,1.854254 z m 6.57193,0 c -0.6557,-0.355839 -0.77879,-1.220819 -0.26124,-1.835894 0.2693,-0.320042 0.38651,-0.367637 0.90537,-0.367637 0.49944,0 0.65262,0.0566 0.94529,0.349277 1.01795,1.01795 -0.29912,2.554475 -1.58942,1.854254 z m 6.57192,0 c -0.6557,-0.355839 -0.77878,-1.220819 -0.26123,-1.835894 0.2693,-0.320042 0.38651,-0.367637 0.90536,-0.367637 0.49945,0 0.65262,0.0566 0.9453,0.349277 1.01164,1.011641 -0.30712,2.550133 -1.58943,1.854254 z m 6.57193,0 c -0.40003,-0.217092 -0.57058,-0.518563 -0.57058,-1.008634 0,-0.789843 0.41007,-1.185668 1.23396,-1.191096 0.48092,-0.0032 0.63481,0.05424 0.92605,0.345478 0.50506,0.505061 0.48457,1.092692 -0.057,1.634249 -0.45531,0.455308 -0.96421,0.528369 -1.53244,0.220005 z m 6.57193,0 c -0.41906,-0.227413 -0.57058,-0.520581 -0.57058,-1.103974 0,-0.694342 0.44389,-1.099556 1.20452,-1.099556 0.75852,0 1.17366,0.341352 1.26769,1.042384 0.0616,0.459175 0.03,0.542034 -0.35391,0.925858 -0.47115,0.471143 -0.97263,0.54738 -1.54772,0.23529 z m 6.57192,0 c -0.41905,-0.227413 -0.57058,-0.520581 -0.57058,-1.103974 0,-0.694342 0.4439,-1.099556 1.20453,-1.099556 0.75852,0 1.17365,0.341352 1.26769,1.042384 0.0616,0.459175 0.0299,0.542034 -0.35392,0.925858 -0.47113,0.471143 -0.97262,0.54738 -1.54772,0.23529 z m 158.3685,-0.115694 c -0.45005,-0.378696 -0.56358,-0.858137 -0.33357,-1.408649 0.21507,-0.514711 0.50019,-0.679188 1.17736,-0.679188 0.65153,0 1.00734,0.244323 1.15977,0.796395 0.3334,1.207474 -1.04638,2.09685 -2.00356,1.291442 z m 6.56721,-0.004 c -0.45748,-0.384941 -0.58356,-0.961182 -0.3213,-1.468358 0.24555,-0.474822 0.52023,-0.615506 1.20181,-0.615506 0.76536,0 1.13758,0.372664 1.13758,1.138911 0,1.11427 -1.16729,1.660848 -2.01809,0.944953 z m 6.57193,0 c -0.45748,-0.384941 -0.58357,-0.961182 -0.3213,-1.468358 0.24555,-0.474822 0.52023,-0.615506 1.20181,-0.615506 0.76536,0 1.13758,0.372664 1.13758,1.138911 0,1.11427 -1.1673,1.660848 -2.01809,0.944953 z m 6.58713,0.01279 c -0.47297,-0.397978 -0.60229,-0.967176 -0.33651,-1.481151 0.24555,-0.474822 0.52024,-0.615507 1.20181,-0.615507 0.75895,0 1.13758,0.373806 1.13758,1.123056 0,0.740549 -0.36059,1.149905 -1.08484,1.231539 -0.45982,0.05183 -0.59508,0.01383 -0.91804,-0.257937 z m 6.57193,0 c -0.47298,-0.397978 -0.6023,-0.967176 -0.33651,-1.481151 0.24555,-0.474822 0.52023,-0.615507 1.20181,-0.615507 0.75894,0 1.13758,0.373806 1.13758,1.123056 0,0.740549 -0.3606,1.149905 -1.08485,1.231539 -0.45982,0.05183 -0.59507,0.01383 -0.91803,-0.257937 z m 6.57192,0 c -0.47297,-0.397978 -0.60229,-0.967176 -0.3365,-1.481151 0.24373,-0.471321 0.52017,-0.615507 1.18008,-0.615507 0.73321,0 1.15931,0.420756 1.15931,1.144782 0,0.717329 -0.3693,1.129159 -1.08485,1.209813 -0.45982,0.05183 -0.59507,0.01383 -0.91804,-0.257937 z m 6.57193,0 c -0.47297,-0.397978 -0.60229,-0.967176 -0.33651,-1.481151 0.24374,-0.471321 0.52018,-0.615507 1.18009,-0.615507 0.73321,0 1.1593,0.420756 1.1593,1.144782 0,0.717329 -0.36929,1.129159 -1.08484,1.209813 -0.45982,0.05183 -0.59508,0.01383 -0.91804,-0.257937 z m 6.57192,0 c -0.47297,-0.397978 -0.60229,-0.967176 -0.3365,-1.481151 0.24373,-0.471321 0.52018,-0.615507 1.18009,-0.615507 0.73321,0 1.1593,0.420756 1.1593,1.144782 0,0.717329 -0.3693,1.129159 -1.08485,1.209813 -0.45982,0.05183 -0.59507,0.01383 -0.91804,-0.257937 z m 6.48697,-0.09795 c -0.46726,-0.467266 -0.53154,-0.841724 -0.24096,-1.403648 0.23315,-0.450873 0.51652,-0.595056 1.16951,-0.595056 0.73321,0 1.1593,0.420756 1.1593,1.144782 0,0.725715 -0.36796,1.129009 -1.106,1.212197 -0.51956,0.05857 -0.59112,0.03245 -0.98185,-0.358275 z m 6.57193,0 c -0.46726,-0.467266 -0.53154,-0.841724 -0.24096,-1.403648 0.23315,-0.450873 0.51652,-0.595056 1.16951,-0.595056 0.73321,0 1.15929,0.420756 1.15929,1.144782 0,0.725715 -0.36795,1.129009 -1.10599,1.212197 -0.51957,0.05857 -0.59113,0.03245 -0.98185,-0.358275 z m 6.55665,-0.01529 c -0.39984,-0.399831 -0.43102,-0.47933 -0.3691,-0.941033 0.094,-0.701031 0.50917,-1.042384 1.26769,-1.042384 0.78139,0 1.20453,0.402145 1.20453,1.144782 0,0.725715 -0.36796,1.129009 -1.106,1.212197 -0.52251,0.05889 -0.58993,0.03364 -0.99712,-0.373562 z m 6.55675,-0.01517 c -0.38383,-0.383824 -0.41551,-0.466683 -0.35392,-0.925858 0.094,-0.701031 0.50917,-1.042384 1.26769,-1.042384 0.76064,0 1.20452,0.405213 1.20452,1.099557 0,0.593868 -0.15445,0.881919 -0.59505,1.109764 -0.58964,0.304911 -1.05013,0.232028 -1.52324,-0.241079 z m 6.57193,0 c -0.38383,-0.383824 -0.41551,-0.466683 -0.35392,-0.925858 0.094,-0.701031 0.50916,-1.042384 1.26768,-1.042384 0.76064,0 1.20453,0.405213 1.20453,1.099557 0,0.593868 -0.15445,0.881919 -0.59506,1.109764 -0.58963,0.304911 -1.05013,0.232028 -1.52323,-0.241079 z m 6.57192,0 c -0.38382,-0.383824 -0.4155,-0.466683 -0.35392,-0.925858 0.094,-0.701031 0.50917,-1.042384 1.26769,-1.042384 0.76064,0 1.20453,0.405213 1.20453,1.099557 0,0.593868 -0.15446,0.881919 -0.59506,1.109764 -0.58963,0.304911 -1.05013,0.232028 -1.52324,-0.241079 z m 6.58721,0.0153 c -0.54156,-0.541558 -0.56205,-1.129189 -0.057,-1.63425 0.29124,-0.291238 0.44512,-0.348646 0.92604,-0.345477 0.8239,0.0054 1.23397,0.401253 1.23397,1.191096 0,0.500001 -0.17405,0.796713 -0.59506,1.014425 -0.58302,0.301489 -1.05071,0.231457 -1.50796,-0.225794 z m 6.74232,0.201684 c -0.66596,-0.413143 -0.77442,-1.2889 -0.22739,-1.835934 0.29268,-0.292679 0.44586,-0.349277 0.9453,-0.349277 0.51886,0 0.63607,0.0476 0.90536,0.367637 0.52676,0.626012 0.39257,1.490928 -0.28571,1.841683 -0.4511,0.233279 -0.93679,0.224525 -1.33756,-0.02411 z m 6.60586,0.03783 c -0.68164,-0.3778 -0.81329,-1.321798 -0.26132,-1.873764 0.29268,-0.29268 0.44586,-0.349278 0.9453,-0.349278 0.51885,0 0.63607,0.0476 0.90536,0.367637 0.32964,0.391761 0.41044,1.012523 0.18632,1.431325 -0.27673,0.517049 -1.20704,0.739239 -1.77566,0.42408 z m 6.57193,0 c -0.68164,-0.3778 -0.81329,-1.321798 -0.26132,-1.873764 0.29268,-0.29268 0.44585,-0.349278 0.9453,-0.349278 0.51885,0 0.63606,0.0476 0.90535,0.367637 0.32965,0.391761 0.41045,1.012523 0.18633,1.431325 -0.27673,0.517049 -1.20704,0.739239 -1.77566,0.42408 z m 6.57193,0 c -0.68164,-0.3778 -0.8133,-1.321798 -0.26133,-1.873764 0.29268,-0.29268 0.44586,-0.349278 0.9453,-0.349278 0.51886,0 0.63607,0.0476 0.90536,0.367637 0.32965,0.391761 0.41044,1.012523 0.18632,1.431325 -0.27673,0.517049 -1.20703,0.739239 -1.77565,0.42408 z"
     style="fill:#ffffff" />
  <flowRoot
     style="font-style:normal;font-weight:normal;font-size:40px;line-height:125%;font-family:sans-serif;letter-spacing:0px;word-spacing:0px;fill:#000000;fill-opacity:1;stroke:none;stroke-width:1px;stroke-linecap:butt;stroke-linejoin:miter;stroke-opacity:1"
     id="flowRoot4161"
     xml:space="preserve"
     transform="translate(0,50)"><flowRegion
       id="flowRegion4163"><rect
         y="217.88138"
         x="274.66962"
         height="62.022175"
         width="88.049332"
         id="rect4165" /></flowRegion><flowPara
       id="flowPara4167" /></flowRoot>  <text
     sodipodi:linespacing="125%"
     id="text4169"
     y="319.38193"
     x="314.54102"
     style="font-style:normal;font-weight:normal;font-size:40px;line-height:125%;font-family:sans-serif;letter-spacing:0px;word-spacing:0px;fill:#000000;fill-opacity:1;stroke:none;stroke-width:1px;stroke-linecap:butt;stroke-linejoin:miter;stroke-opacity:1"
     xml:space="preserve"><tspan
       y="319.38193"
       x="314.54102"
       id="tspan4171"
       sodipodi:role="line" /></text>
  <text
     sodipodi:linespacing="125%"
     id="text4157"
     y="267.42789"
     x="47.817429"
     style="font-style:normal;font-weight:normal;font-size:77.10199738px;line-height:125%;font-family:sans-serif;letter-spacing:0px;word-spacing:0px;fill:#ffffff;fill-opacity:1;stroke:none;stroke-width:1px;stroke-linecap:butt;stroke-linejoin:miter;stroke-opacity:1"
     xml:space="preserve"><tspan
       style="font-style:normal;font-variant:normal;font-weight:normal;font-stretch:normal;font-family:'Myriad Pro';-inkscape-font-specification:'Myriad Pro';fill:#ffffff;fill-opacity:1"
       y="267.42789"
       x="47.817429"
       id="tspan4159"
       sodipodi:role="line">Makers' Club </tspan></text>
  <g
     id="g5165"
     inkscape:label="Voronoi" />
  <g
     inkscape:label="Delaunay"
     id="g5197" />
  <g
     id="g5232">
    <ellipse
       transform="matrix(1.000000,0.000000,0.000000,1.000000,-2.505109,1.256129)"
       ry="7.3173642"
       rx="7.3173637"
       cy="-3.551333"
       cx="2.8224118"
       id="ellipse1345"
       style="opacity:1;fill:#00008b;fill-opacity:1;fill-rule:nonzero;stroke:#00008b;stroke-width:0.36527172;stroke-linejoin:round;stroke-miterlimit:4;stroke-dasharray:1.09581519, 1.09581519;stroke-dashoffset:0;stroke-opacity:1" />
    <ellipse
       transform="matrix(1.000000,0.000000,0.000000,1.000000,12.129618,1.256129)"
       ry="7.3173642"
       rx="7.3173637"
       cy="-3.551333"
       cx="2.8224118"
       id="ellipse3170"
       style="opacity:1;fill:#00008b;fill-opacity:1;fill-rule:nonzero;stroke:#00008b;stroke-width:0.36527172;stroke-linejoin:round;stroke-miterlimit:4;stroke-dasharray:1.09581519, 1.09581519;stroke-dashoffset:0;stroke-opacity:1" />
    <ellipse
       transform="matrix(1.000000,0.000000,0.000000,1.000000,26.764346,1.256129)"
       ry="7.3173642"
       rx="7.3173637"
       cy="-3.551333"
       cx="2.8224118"
       id="ellipse2816"
       style="opacity:1;fill:#00008b;fill-opacity:1;fill-rule:nonzero;stroke:#00008b;stroke-width:0.36527172;stroke-linejoin:round;stroke-miterlimit:4;stroke-dasharray:1.09581519, 1.09581519;stroke-dashoffset:0;stroke-opacity:1" />
    <ellipse
       transform="matrix(1.000000,0.000000,0.000000,1.000000,41.399073,1.256129)"
       ry="7.3173642"
       rx="7.3173637"
       cy="-3.551333"
       cx="2.8224118"
       id="ellipse3830"
       style="opacity:1;fill:#00008b;fill-opacity:1;fill-rule:nonzero;stroke:#00008b;stroke-width:0.36527172;stroke-linejoin:round;stroke-miterlimit:4;stroke-dasharray:1.09581519, 1.09581519;stroke-dashoffset:0;stroke-opacity:1" />
    <ellipse
       transform="matrix(1.000000,0.000000,0.000000,1.000000,56.033801,1.256129)"
       ry="7.3173642"
       rx="7.3173637"
       cy="-3.551333"
       cx="2.8224118"
       id="ellipse0440"
       style="opacity:1;fill:#00008b;fill-opacity:1;fill-rule:nonzero;stroke:#00008b;stroke-width:0.36527172;stroke-linejoin:round;stroke-miterlimit:4;stroke-dasharray:1.09581519, 1.09581519;stroke-dashoffset:0;stroke-opacity:1" />
    <ellipse
       transform="matrix(1.000000,0.000000,0.000000,1.000000,70.668528,1.256129)"
       ry="7.3173642"
       rx="7.3173637"
       cy="-3.551333"
       cx="2.8224118"
       id="ellipse6869"
       style="opacity:1;fill:#00008b;fill-opacity:1;fill-rule:nonzero;stroke:#00008b;stroke-width:0.36527172;stroke-linejoin:round;stroke-miterlimit:4;stroke-dasharray:1.09581519, 1.09581519;stroke-dashoffset:0;stroke-opacity:1" />
    <ellipse
       transform="matrix(1.000000,0.000000,0.000000,1.000000,85.303255,1.256129)"
       ry="7.3173642"
       rx="7.3173637"
       cy="-3.551333"
       cx="2.8224118"
       id="ellipse0687"
       style="opacity:1;fill:#00008b;fill-opacity:1;fill-rule:nonzero;stroke:#00008b;stroke-width:0.36527172;stroke-linejoin:round;stroke-miterlimit:4;stroke-dasharray:1.09581519, 1.09581519;stroke-dashoffset:0;stroke-opacity:1" />
    <ellipse
       transform="matrix(1.000000,0.000000,0.000000,1.000000,99.937983,1.256129)"
       ry="7.3173642"
       rx="7.3173637"
       cy="-3.551333"
       cx="2.8224118"
       id="ellipse5171"
       style="opacity:1;fill:#00008b;fill-opacity:1;fill-rule:nonzero;stroke:#00008b;stroke-width:0.36527172;stroke-linejoin:round;stroke-miterlimit:4;stroke-dasharray:1.09581519, 1.09581519;stroke-dashoffset:0;stroke-opacity:1" />
    <ellipse
       transform="matrix(1.000000,0.000000,0.000000,1.000000,114.572710,1.256129)"
       ry="7.3173642"
       rx="7.3173637"
       cy="-3.551333"
       cx="2.8224118"
       id="ellipse4685"
       style="opacity:1;fill:#00008b;fill-opacity:1;fill-rule:nonzero;stroke:#00008b;stroke-width:0.36527172;stroke-linejoin:round;stroke-miterlimit:4;stroke-dasharray:1.09581519, 1.09581519;stroke-dashoffset:0;stroke-opacity:1" />
    <ellipse
       transform="matrix(1.000000,0.000000,0.000000,1.000000,129.207438,1.256129)"
       ry="7.3173642"
       rx="7.3173637"
       cy="-3.551333"
       cx="2.8224118"
       id="ellipse5267"
       style="opacity:1;fill:#00008b;fill-opacity:1;fill-rule:nonzero;stroke:#00008b;stroke-width:0.36527172;stroke-linejoin:round;stroke-miterlimit:4;stroke-dasharray:1.09581519, 1.09581519;stroke-dashoffset:0;stroke-opacity:1" />
    <ellipse
       transform="matrix(1.000000,0.000000,0.000000,1.000000,143.842165,1.256129)"
       ry="7.3173642"
       rx="7.3173637"
       cy="-3.551333"
       cx="2.8224118"
       id="ellipse8241"
       style="opacity:1;fill:#00008b;fill-opacity:1;fill-rule:nonzero;stroke:#00008b;stroke-width:0.36527172;stroke-linejoin:round;stroke-miterlimit:4;stroke-dasharray:1.09581519, 1.09581519;stroke-dashoffset:0;stroke-opacity:1" />
    <ellipse
       transform="matrix(1.000000,0.000000,0.000000,1.000000,158.476892,1.256129)"
       ry="7.3173642"
       rx="7.3173637"
       cy="-3.551333"
       cx="2.8224118"
       id="ellipse1346"
       style="opacity:1;fill:#00008b;fill-opacity:1;fill-rule:nonzero;stroke:#00008b;stroke-width:0.36527172;stroke-linejoin:round;stroke-miterlimit:4;stroke-dasharray:1.09581519, 1.09581519;stroke-dashoffset:0;stroke-opacity:1" />
    <ellipse
       transform="matrix(1.000000,0.000000,0.000000,1.000000,173.111620,1.256129)"
       ry="7.3173642"
       rx="7.3173637"
       cy="-3.551333"
       cx="2.8224118"
       id="ellipse4940"
       style="opacity:1;fill:#00008b;fill-opacity:1;fill-rule:nonzero;stroke:#00008b;stroke-width:0.36527172;stroke-linejoin:round;stroke-miterlimit:4;stroke-dasharray:1.09581519, 1.09581519;stroke-dashoffset:0;stroke-opacity:1" />
    <ellipse
       transform="matrix(1.000000,0.000000,0.000000,1.000000,187.746347,1.256129)"
       ry="7.3173642"
       rx="7.3173637"
       cy="-3.551333"
       cx="2.8224118"
       id="ellipse6264"
       style="opacity:1;fill:#00008b;fill-opacity:1;fill-rule:nonzero;stroke:#00008b;stroke-width:0.36527172;stroke-linejoin:round;stroke-miterlimit:4;stroke-dasharray:1.09581519, 1.09581519;stroke-dashoffset:0;stroke-opacity:1" />
    <ellipse
       transform="matrix(1.000000,0.000000,0.000000,1.000000,202.381075,1.256129)"
       ry="7.3173642"
       rx="7.3173637"
       cy="-3.551333"
       cx="2.8224118"
       id="ellipse0137"
       style="opacity:1;fill:#00008b;fill-opacity:1;fill-rule:nonzero;stroke:#00008b;stroke-width:0.36527172;stroke-linejoin:round;stroke-miterlimit:4;stroke-dasharray:1.09581519, 1.09581519;stroke-dashoffset:0;stroke-opacity:1" />
    <ellipse
       transform="matrix(1.000000,0.000000,0.000000,1.000000,217.015802,1.256129)"
       ry="7.3173642"
       rx="7.3173637"
       cy="-3.551333"
       cx="2.8224118"
       id="ellipse8901"
       style="opacity:1;fill:#00008b;fill-opacity:1;fill-rule:nonzero;stroke:#00008b;stroke-width:0.36527172;stroke-linejoin:round;stroke-miterlimit:4;stroke-dasharray:1.09581519, 1.09581519;stroke-dashoffset:0;stroke-opacity:1" />
    <ellipse
       transform="matrix(1.000000,0.000000,0.000000,1.000000,231.650529,1.256129)"
       ry="7.3173642"
       rx="7.3173637"
       cy="-3.551333"
       cx="2.8224118"
       id="ellipse0149"
       style="opacity:1;fill:#00008b;fill-opacity:1;fill-rule:nonzero;stroke:#00008b;stroke-width:0.36527172;stroke-linejoin:round;stroke-miterlimit:4;stroke-dasharray:1.09581519, 1.09581519;stroke-dashoffset:0;stroke-opacity:1" />
    <ellipse
       transform="matrix(1.000000,0.000000,0.000000,1.000000,246.285257,1.256129)"
       ry="7.3173642"
       rx="7.3173637"
       cy="-3.551333"
       cx="2.8224118"
       id="ellipse3766"
       style="opacity:1;fill:#00008b;fill-opacity:1;fill-rule:nonzero;stroke:#00008b;stroke-width:0.36527172;stroke-linejoin:round;stroke-miterlimit:4;stroke-dasharray:1.09581519, 1.09581519;stroke-dashoffset:0;stroke-opacity:1" />
    <ellipse
       transform="matrix(1.000000,0.000000,0.000000,1.000000,260.919984,1.256129)"
       ry="7.3173642"
       rx="7.3173637"
       cy="-3.551333"
       cx="2.8224118"
       id="ellipse2936"
       style="opacity:1;fill:#00008b;fill-opacity:1;fill-rule:nonzero;stroke:#00008b;stroke-width:0.36527172;stroke-linejoin:round;stroke-miterlimit:4;stroke-dasharray:1.09581519, 1.09581519;stroke-dashoffset:0;stroke-opacity:1" />
    <ellipse
       transform="matrix(1.000000,0.000000,0.000000,1.000000,275.554712,1.256129)"
       ry="7.3173642"
       rx="7.3173637"
       cy="-3.551333"
       cx="2.8224118"
       id="ellipse5013"
       style="opacity:1;fill:#00008b;fill-opacity:1;fill-rule:nonzero;stroke:#00008b;stroke-width:0.36527172;stroke-linejoin:round;stroke-miterlimit:4;stroke-dasharray:1.09581519, 1.09581519;stroke-dashoffset:0;stroke-opacity:1" />
    <ellipse
       transform="matrix(1.000000,0.000000,0.000000,1.000000,290.189439,1.256129)"
       ry="7.3173642"
       rx="7.3173637"
       cy="-3.551333"
       cx="2.8224118"
       id="ellipse0755"
       style="opacity:1;fill:#00008b;fill-opacity:1;fill-rule:nonzero;stroke:#00008b;stroke-width:0.36527172;stroke-linejoin:round;stroke-miterlimit:4;stroke-dasharray:1.09581519, 1.09581519;stroke-dashoffset:0;stroke-opacity:1" />
    <ellipse
       transform="matrix(1.000000,0.000000,0.000000,1.000000,304.824166,1.256129)"
       ry="7.3173642"
       rx="7.3173637"
       cy="-3.551333"
       cx="2.8224118"
       id="ellipse3177"
       style="opacity:1;fill:#00008b;fill-opacity:1;fill-rule:nonzero;stroke:#00008b;stroke-width:0.36527172;stroke-linejoin:round;stroke-miterlimit:4;stroke-dasharray:1.09581519, 1.09581519;stroke-dashoffset:0;stroke-opacity:1" />
    <ellipse
       transform="matrix(1.000000,0.000000,0.000000,1.000000,319.458894,1.256129)"
       ry="7.3173642"
       rx="7.3173637"
       cy="-3.551333"
       cx="2.8224118"
       id="ellipse1366"
       style="opacity:1;fill:#00008b;fill-opacity:1;fill-rule:nonzero;stroke:#00008b;stroke-width:0.36527172;stroke-linejoin:round;stroke-miterlimit:4;stroke-dasharray:1.09581519, 1.09581519;stroke-dashoffset:0;stroke-opacity:1" />
    <ellipse
       transform="matrix(1.000000,0.000000,0.000000,1.000000,334.093621,1.256129)"
       ry="7.3173642"
       rx="7.3173637"
       cy="-3.551333"
       cx="2.8224118"
       id="ellipse6329"
       style="opacity:1;fill:#00008b;fill-opacity:1;fill-rule:nonzero;stroke:#00008b;stroke-width:0.36527172;stroke-linejoin:round;stroke-miterlimit:4;stroke-dasharray:1.09581519, 1.09581519;stroke-dashoffset:0;stroke-opacity:1" />
    <ellipse
       transform="matrix(1.000000,0.000000,0.000000,1.000000,348.728349,1.256129)"
       ry="7.3173642"
       rx="7.3173637"
       cy="-3.551333"
       cx="2.8224118"
       id="ellipse2426"
       style="opacity:1;fill:#00008b;fill-opacity:1;fill-rule:nonzero;stroke:#00008b;stroke-width:0.36527172;stroke-linejoin:round;stroke-miterlimit:4;stroke-dasharray:1.09581519, 1.09581519;stroke-dashoffset:0;stroke-opacity:1" />
    <ellipse
       transform="matrix(1.000000,0.000000,0.000000,1.000000,363.363076,1.256129)"
       ry="7.3173642"
       rx="7.3173637"
       cy="-3.551333"
       cx="2.8224118"
       id="ellipse9176"
       style="opacity:1;fill:#00008b;fill-opacity:1;fill-rule:nonzero;stroke:#00008b;stroke-width:0.36527172;stroke-linejoin:round;stroke-miterlimit:4;stroke-dasharray:1.09581519, 1.09581519;stroke-dashoffset:0;stroke-opacity:1" />
    <ellipse
       transform="matrix(1.000000,0.000000,0.000000,1.000000,377.997803,1.256129)"
       ry="7.3173642"
       rx="7.3173637"
       cy="-3.551333"
       cx="2.8224118"
       id="ellipse9482"
       style="opacity:1;fill:#00008b;fill-opacity:1;fill-rule:nonzero;stroke:#00008b;stroke-width:0.36527172;stroke-linejoin:round;stroke-miterlimit:4;stroke-dasharray:1.09581519, 1.09581519;stroke-dashoffset:0;stroke-opacity:1" />
    <ellipse
       transform="matrix(1.000000,0.000000,0.000000,1.000000,392.632531,1.256129)"
       ry="7.3173642"
       rx="7.3173637"
       cy="-3.551333"
       cx="2.8224118"
       id="ellipse9297"
       style="opacity:1;fill:#00008b;fill-opacity:1;fill-rule:nonzero;stroke:#00008b;stroke-width:0.36527172;stroke-linejoin:round;stroke-miterlimit:4;stroke-dasharray:1.09581519, 1.09581519;stroke-dashoffset:0;stroke-opacity:1" />
    <ellipse
       transform="matrix(1.000000,0.000000,0.000000,1.000000,407.267258,1.256129)"
       ry="7.3173642"
       rx="7.3173637"
       cy="-3.551333"
       cx="2.8224118"
       id="ellipse9133"
       style="opacity:1;fill:#00008b;fill-opacity:1;fill-rule:nonzero;stroke:#00008b;stroke-width:0.36527172;stroke-linejoin:round;stroke-miterlimit:4;stroke-dasharray:1.09581519, 1.09581519;stroke-dashoffset:0;stroke-opacity:1" />
    <ellipse
       transform="matrix(1.000000,0.000000,0.000000,1.000000,421.901986,1.256129)"
       ry="7.3173642"
       rx="7.3173637"
       cy="-3.551333"
       cx="2.8224118"
       id="ellipse6015"
       style="opacity:1;fill:#00008b;fill-opacity:1;fill-rule:nonzero;stroke:#00008b;stroke-width:0.36527172;stroke-linejoin:round;stroke-miterlimit:4;stroke-dasharray:1.09581519, 1.09581519;stroke-dashoffset:0;stroke-opacity:1" />
    <ellipse
       transform="matrix(1.000000,0.000000,0.000000,1.000000,436.536713,1.256129)"
       ry="7.3173642"
       rx="7.3173637"
       cy="-3.551333"
       cx="2.8224118"
       id="ellipse3390"
       style="opacity:1;fill:#00008b;fill-opacity:1;fill-rule:nonzero;stroke:#00008b;stroke-width:0.36527172;stroke-linejoin:round;stroke-miterlimit:4;stroke-dasharray:1.09581519, 1.09581519;stroke-dashoffset:0;stroke-opacity:1" />
    <ellipse
       transform="matrix(1.000000,0.000000,0.000000,1.000000,451.171440,1.256129)"
       ry="7.3173642"
       rx="7.3173637"
       cy="-3.551333"
       cx="2.8224118"
       id="ellipse6054"
       style="opacity:1;fill:#00008b;fill-opacity:1;fill-rule:nonzero;stroke:#00008b;stroke-width:0.36527172;stroke-linejoin:round;stroke-miterlimit:4;stroke-dasharray:1.09581519, 1.09581519;stroke-dashoffset:0;stroke-opacity:1" />
    <ellipse
       transform="matrix(1.000000,0.000000,0.000000,1.000000,465.806168,1.256129)"
       ry="7.3173642"
       rx="7.3173637"
       cy="-3.551333"
       cx="2.8224118"
       id="ellipse4433"
       style="opacity:1;fill:#00008b;fill-opacity:1;fill-rule:nonzero;stroke:#00008b;stroke-width:0.36527172;stroke-linejoin:round;stroke-miterlimit:4;stroke-dasharray:1.09581519, 1.09581519;stroke-dashoffset:0;stroke-opacity:1" />
    <ellipse
       transform="matrix(1.000000,0.000000,0.000000,1.000000,480.440895,1.256129)"
       ry="7.3173642"
       rx="7.3173637"
       cy="-3.551333"
       cx="2.8224118"
       id="ellipse4373"
       style="opacity:1;fill:#00008b;fill-opacity:1;fill-rule:nonzero;stroke:#00008b;stroke-width:0.36527172;stroke-linejoin:round;stroke-miterlimit:4;stroke-dasharray:1.09581519, 1.09581519;stroke-dashoffset:0;stroke-opacity:1" />
    <ellipse
       transform="matrix(1.000000,0.000000,0.000000,1.000000,495.075623,1.256129)"
       ry="7.3173642"
       rx="7.3173637"
       cy="-3.551333"
       cx="2.8224118"
       id="ellipse1267"
       style="opacity:1;fill:#00008b;fill-opacity:1;fill-rule:nonzero;stroke:#00008b;stroke-width:0.36527172;stroke-linejoin:round;stroke-miterlimit:4;stroke-dasharray:1.09581519, 1.09581519;stroke-dashoffset:0;stroke-opacity:1" />
    <ellipse
       transform="matrix(0.000000,1.000000,-1.000000,0.000000,497.980810,5.883003)"
       ry="7.3173642"
       rx="7.3173637"
       cy="-3.551333"
       cx="2.8224118"
       id="ellipse2391"
       style="opacity:1;fill:#00008b;fill-opacity:1;fill-rule:nonzero;stroke:#00008b;stroke-width:0.36527172;stroke-linejoin:round;stroke-miterlimit:4;stroke-dasharray:1.09581519, 1.09581519;stroke-dashoffset:0;stroke-opacity:1" />
    <ellipse
       transform="matrix(0.000000,1.000000,-1.000000,0.000000,497.980810,20.517730)"
       ry="7.3173642"
       rx="7.3173637"
       cy="-3.551333"
       cx="2.8224118"
       id="ellipse1207"
       style="opacity:1;fill:#00008b;fill-opacity:1;fill-rule:nonzero;stroke:#00008b;stroke-width:0.36527172;stroke-linejoin:round;stroke-miterlimit:4;stroke-dasharray:1.09581519, 1.09581519;stroke-dashoffset:0;stroke-opacity:1" />
    <ellipse
       transform="matrix(0.000000,1.000000,-1.000000,0.000000,497.980810,35.152458)"
       ry="7.3173642"
       rx="7.3173637"
       cy="-3.551333"
       cx="2.8224118"
       id="ellipse8097"
       style="opacity:1;fill:#00008b;fill-opacity:1;fill-rule:nonzero;stroke:#00008b;stroke-width:0.36527172;stroke-linejoin:round;stroke-miterlimit:4;stroke-dasharray:1.09581519, 1.09581519;stroke-dashoffset:0;stroke-opacity:1" />
    <ellipse
       transform="matrix(0.000000,1.000000,-1.000000,0.000000,497.980810,49.787185)"
       ry="7.3173642"
       rx="7.3173637"
       cy="-3.551333"
       cx="2.8224118"
       id="ellipse8532"
       style="opacity:1;fill:#00008b;fill-opacity:1;fill-rule:nonzero;stroke:#00008b;stroke-width:0.36527172;stroke-linejoin:round;stroke-miterlimit:4;stroke-dasharray:1.09581519, 1.09581519;stroke-dashoffset:0;stroke-opacity:1" />
    <ellipse
       transform="matrix(0.000000,1.000000,-1.000000,0.000000,497.980810,64.421913)"
       ry="7.3173642"
       rx="7.3173637"
       cy="-3.551333"
       cx="2.8224118"
       id="ellipse6359"
       style="opacity:1;fill:#00008b;fill-opacity:1;fill-rule:nonzero;stroke:#00008b;stroke-width:0.36527172;stroke-linejoin:round;stroke-miterlimit:4;stroke-dasharray:1.09581519, 1.09581519;stroke-dashoffset:0;stroke-opacity:1" />
    <ellipse
       transform="matrix(0.000000,1.000000,-1.000000,0.000000,497.980810,79.056640)"
       ry="7.3173642"
       rx="7.3173637"
       cy="-3.551333"
       cx="2.8224118"
       id="ellipse7986"
       style="opacity:1;fill:#00008b;fill-opacity:1;fill-rule:nonzero;stroke:#00008b;stroke-width:0.36527172;stroke-linejoin:round;stroke-miterlimit:4;stroke-dasharray:1.09581519, 1.09581519;stroke-dashoffset:0;stroke-opacity:1" />
    <ellipse
       transform="matrix(0.000000,1.000000,-1.000000,0.000000,497.980810,93.691367)"
       ry="7.3173642"
       rx="7.3173637"
       cy="-3.551333"
       cx="2.8224118"
       id="ellipse6917"
       style="opacity:1;fill:#00008b;fill-opacity:1;fill-rule:nonzero;stroke:#00008b;stroke-width:0.36527172;stroke-linejoin:round;stroke-miterlimit:4;stroke-dasharray:1.09581519, 1.09581519;stroke-dashoffset:0;stroke-opacity:1" />
    <ellipse
       transform="matrix(0.000000,1.000000,-1.000000,0.000000,497.980810,108.326095)"
       ry="7.3173642"
       rx="7.3173637"
       cy="-3.551333"
       cx="2.8224118"
       id="ellipse2695"
       style="opacity:1;fill:#00008b;fill-opacity:1;fill-rule:nonzero;stroke:#00008b;stroke-width:0.36527172;stroke-linejoin:round;stroke-miterlimit:4;stroke-dasharray:1.09581519, 1.09581519;stroke-dashoffset:0;stroke-opacity:1" />
    <ellipse
       transform="matrix(0.000000,1.000000,-1.000000,0.000000,497.980810,122.960822)"
       ry="7.3173642"
       rx="7.3173637"
       cy="-3.551333"
       cx="2.8224118"
       id="ellipse8734"
       style="opacity:1;fill:#00008b;fill-opacity:1;fill-rule:nonzero;stroke:#00008b;stroke-width:0.36527172;stroke-linejoin:round;stroke-miterlimit:4;stroke-dasharray:1.09581519, 1.09581519;stroke-dashoffset:0;stroke-opacity:1" />
    <ellipse
       transform="matrix(0.000000,1.000000,-1.000000,0.000000,497.980810,137.595550)"
       ry="7.3173642"
       rx="7.3173637"
       cy="-3.551333"
       cx="2.8224118"
       id="ellipse3298"
       style="opacity:1;fill:#00008b;fill-opacity:1;fill-rule:nonzero;stroke:#00008b;stroke-width:0.36527172;stroke-linejoin:round;stroke-miterlimit:4;stroke-dasharray:1.09581519, 1.09581519;stroke-dashoffset:0;stroke-opacity:1" />
    <ellipse
       transform="matrix(0.000000,1.000000,-1.000000,0.000000,497.980810,152.230277)"
       ry="7.3173642"
       rx="7.3173637"
       cy="-3.551333"
       cx="2.8224118"
       id="ellipse3464"
       style="opacity:1;fill:#00008b;fill-opacity:1;fill-rule:nonzero;stroke:#00008b;stroke-width:0.36527172;stroke-linejoin:round;stroke-miterlimit:4;stroke-dasharray:1.09581519, 1.09581519;stroke-dashoffset:0;stroke-opacity:1" />
    <ellipse
       transform="matrix(0.000000,1.000000,-1.000000,0.000000,497.980810,166.865004)"
       ry="7.3173642"
       rx="7.3173637"
       cy="-3.551333"
       cx="2.8224118"
       id="ellipse6542"
       style="opacity:1;fill:#00008b;fill-opacity:1;fill-rule:nonzero;stroke:#00008b;stroke-width:0.36527172;stroke-linejoin:round;stroke-miterlimit:4;stroke-dasharray:1.09581519, 1.09581519;stroke-dashoffset:0;stroke-opacity:1" />
    <ellipse
       transform="matrix(0.000000,1.000000,-1.000000,0.000000,497.980810,181.499732)"
       ry="7.3173642"
       rx="7.3173637"
       cy="-3.551333"
       cx="2.8224118"
       id="ellipse4050"
       style="opacity:1;fill:#00008b;fill-opacity:1;fill-rule:nonzero;stroke:#00008b;stroke-width:0.36527172;stroke-linejoin:round;stroke-miterlimit:4;stroke-dasharray:1.09581519, 1.09581519;stroke-dashoffset:0;stroke-opacity:1" />
    <ellipse
       transform="matrix(0.000000,1.000000,-1.000000,0.000000,497.980810,196.134459)"
       ry="7.3173642"
       rx="7.3173637"
       cy="-3.551333"
       cx="2.8224118"
       id="ellipse8315"
       style="opacity:1;fill:#00008b;fill-opacity:1;fill-rule:nonzero;stroke:#00008b;stroke-width:0.36527172;stroke-linejoin:round;stroke-miterlimit:4;stroke-dasharray:1.09581519, 1.09581519;stroke-dashoffset:0;stroke-opacity:1" />
    <ellipse
       transform="matrix(0.000000,1.000000,-1.000000,0.000000,497.980810,210.769187)"
       ry="7.3173642"
       rx="7.3173637"
       cy="-3.551333"
       cx="2.8224118"
       id="ellipse5510"
       style="opacity:1;fill:#00008b;fill-opacity:1;fill-rule:nonzero;stroke:#00008b;stroke-width:0.36527172;stroke-linejoin:round;stroke-miterlimit:4;stroke-dasharray:1.09581519, 1.09581519;stroke-dashoffset:0;stroke-opacity:1" />
    <ellipse
       transform="matrix(0.000000,1.000000,-1.000000,0.000000,497.980810,225.403914)"
       ry="7.3173642"
       rx="7.3173637"
       cy="-3.551333"
       cx="2.8224118"
       id="ellipse9313"
       style="opacity:1;fill:#00008b;fill-opacity:1;fill-rule:nonzero;stroke:#00008b;stroke-width:0.36527172;stroke-linejoin:round;stroke-miterlimit:4;stroke-dasharray:1.09581519, 1.09581519;stroke-dashoffset:0;stroke-opacity:1" />
    <ellipse
       transform="matrix(0.000000,1.000000,-1.000000,0.000000,497.980810,240.038641)"
       ry="7.3173642"
       rx="7.3173637"
       cy="-3.551333"
       cx="2.8224118"
       id="ellipse5337"
       style="opacity:1;fill:#00008b;fill-opacity:1;fill-rule:nonzero;stroke:#00008b;stroke-width:0.36527172;stroke-linejoin:round;stroke-miterlimit:4;stroke-dasharray:1.09581519, 1.09581519;stroke-dashoffset:0;stroke-opacity:1" />
    <ellipse
       transform="matrix(0.000000,1.000000,-1.000000,0.000000,497.980810,254.673369)"
       ry="7.3173642"
       rx="7.3173637"
       cy="-3.551333"
       cx="2.8224118"
       id="ellipse3858"
       style="opacity:1;fill:#00008b;fill-opacity:1;fill-rule:nonzero;stroke:#00008b;stroke-width:0.36527172;stroke-linejoin:round;stroke-miterlimit:4;stroke-dasharray:1.09581519, 1.09581519;stroke-dashoffset:0;stroke-opacity:1" />
    <ellipse
       transform="matrix(0.000000,1.000000,-1.000000,0.000000,497.980810,269.308096)"
       ry="7.3173642"
       rx="7.3173637"
       cy="-3.551333"
       cx="2.8224118"
       id="ellipse8529"
       style="opacity:1;fill:#00008b;fill-opacity:1;fill-rule:nonzero;stroke:#00008b;stroke-width:0.36527172;stroke-linejoin:round;stroke-miterlimit:4;stroke-dasharray:1.09581519, 1.09581519;stroke-dashoffset:0;stroke-opacity:1" />
    <ellipse
       transform="matrix(0.000000,1.000000,-1.000000,0.000000,497.980810,283.942824)"
       ry="7.3173642"
       rx="7.3173637"
       cy="-3.551333"
       cx="2.8224118"
       id="ellipse4252"
       style="opacity:1;fill:#00008b;fill-opacity:1;fill-rule:nonzero;stroke:#00008b;stroke-width:0.36527172;stroke-linejoin:round;stroke-miterlimit:4;stroke-dasharray:1.09581519, 1.09581519;stroke-dashoffset:0;stroke-opacity:1" />
    <ellipse
       transform="matrix(-1.000000,0.000000,-0.000000,-1.000000,502.954588,296.448663)"
       ry="7.3173642"
       rx="7.3173637"
       cy="-3.551333"
       cx="2.8224118"
       id="ellipse3683"
       style="opacity:1;fill:#00008b;fill-opacity:1;fill-rule:nonzero;stroke:#00008b;stroke-width:0.36527172;stroke-linejoin:round;stroke-miterlimit:4;stroke-dasharray:1.09581519, 1.09581519;stroke-dashoffset:0;stroke-opacity:1" />
    <ellipse
       transform="matrix(-1.000000,0.000000,-0.000000,-1.000000,488.319860,296.448663)"
       ry="7.3173642"
       rx="7.3173637"
       cy="-3.551333"
       cx="2.8224118"
       id="ellipse0151"
       style="opacity:1;fill:#00008b;fill-opacity:1;fill-rule:nonzero;stroke:#00008b;stroke-width:0.36527172;stroke-linejoin:round;stroke-miterlimit:4;stroke-dasharray:1.09581519, 1.09581519;stroke-dashoffset:0;stroke-opacity:1" />
    <ellipse
       transform="matrix(-1.000000,0.000000,-0.000000,-1.000000,473.685133,296.448663)"
       ry="7.3173642"
       rx="7.3173637"
       cy="-3.551333"
       cx="2.8224118"
       id="ellipse6459"
       style="opacity:1;fill:#00008b;fill-opacity:1;fill-rule:nonzero;stroke:#00008b;stroke-width:0.36527172;stroke-linejoin:round;stroke-miterlimit:4;stroke-dasharray:1.09581519, 1.09581519;stroke-dashoffset:0;stroke-opacity:1" />
    <ellipse
       transform="matrix(-1.000000,0.000000,-0.000000,-1.000000,459.050406,296.448663)"
       ry="7.3173642"
       rx="7.3173637"
       cy="-3.551333"
       cx="2.8224118"
       id="ellipse4264"
       style="opacity:1;fill:#00008b;fill-opacity:1;fill-rule:nonzero;stroke:#00008b;stroke-width:0.36527172;stroke-linejoin:round;stroke-miterlimit:4;stroke-dasharray:1.09581519, 1.09581519;stroke-dashoffset:0;stroke-opacity:1" />
    <ellipse
       transform="matrix(-1.000000,0.000000,-0.000000,-1.000000,444.415678,296.448663)"
       ry="7.3173642"
       rx="7.3173637"
       cy="-3.551333"
       cx="2.8224118"
       id="ellipse9828"
       style="opacity:1;fill:#00008b;fill-opacity:1;fill-rule:nonzero;stroke:#00008b;stroke-width:0.36527172;stroke-linejoin:round;stroke-miterlimit:4;stroke-dasharray:1.09581519, 1.09581519;stroke-dashoffset:0;stroke-opacity:1" />
    <ellipse
       transform="matrix(-1.000000,0.000000,-0.000000,-1.000000,429.780951,296.448663)"
       ry="7.3173642"
       rx="7.3173637"
       cy="-3.551333"
       cx="2.8224118"
       id="ellipse4601"
       style="opacity:1;fill:#00008b;fill-opacity:1;fill-rule:nonzero;stroke:#00008b;stroke-width:0.36527172;stroke-linejoin:round;stroke-miterlimit:4;stroke-dasharray:1.09581519, 1.09581519;stroke-dashoffset:0;stroke-opacity:1" />
    <ellipse
       transform="matrix(-1.000000,0.000000,-0.000000,-1.000000,415.146223,296.448663)"
       ry="7.3173642"
       rx="7.3173637"
       cy="-3.551333"
       cx="2.8224118"
       id="ellipse0580"
       style="opacity:1;fill:#00008b;fill-opacity:1;fill-rule:nonzero;stroke:#00008b;stroke-width:0.36527172;stroke-linejoin:round;stroke-miterlimit:4;stroke-dasharray:1.09581519, 1.09581519;stroke-dashoffset:0;stroke-opacity:1" />
    <ellipse
       transform="matrix(-1.000000,0.000000,-0.000000,-1.000000,400.511496,296.448663)"
       ry="7.3173642"
       rx="7.3173637"
       cy="-3.551333"
       cx="2.8224118"
       id="ellipse5883"
       style="opacity:1;fill:#00008b;fill-opacity:1;fill-rule:nonzero;stroke:#00008b;stroke-width:0.36527172;stroke-linejoin:round;stroke-miterlimit:4;stroke-dasharray:1.09581519, 1.09581519;stroke-dashoffset:0;stroke-opacity:1" />
    <ellipse
       transform="matrix(-1.000000,0.000000,-0.000000,-1.000000,385.876769,296.448663)"
       ry="7.3173642"
       rx="7.3173637"
       cy="-3.551333"
       cx="2.8224118"
       id="ellipse1176"
       style="opacity:1;fill:#00008b;fill-opacity:1;fill-rule:nonzero;stroke:#00008b;stroke-width:0.36527172;stroke-linejoin:round;stroke-miterlimit:4;stroke-dasharray:1.09581519, 1.09581519;stroke-dashoffset:0;stroke-opacity:1" />
    <ellipse
       transform="matrix(-1.000000,0.000000,-0.000000,-1.000000,371.242041,296.448663)"
       ry="7.3173642"
       rx="7.3173637"
       cy="-3.551333"
       cx="2.8224118"
       id="ellipse9693"
       style="opacity:1;fill:#00008b;fill-opacity:1;fill-rule:nonzero;stroke:#00008b;stroke-width:0.36527172;stroke-linejoin:round;stroke-miterlimit:4;stroke-dasharray:1.09581519, 1.09581519;stroke-dashoffset:0;stroke-opacity:1" />
    <ellipse
       transform="matrix(-1.000000,0.000000,-0.000000,-1.000000,356.607314,296.448663)"
       ry="7.3173642"
       rx="7.3173637"
       cy="-3.551333"
       cx="2.8224118"
       id="ellipse3063"
       style="opacity:1;fill:#00008b;fill-opacity:1;fill-rule:nonzero;stroke:#00008b;stroke-width:0.36527172;stroke-linejoin:round;stroke-miterlimit:4;stroke-dasharray:1.09581519, 1.09581519;stroke-dashoffset:0;stroke-opacity:1" />
    <ellipse
       transform="matrix(-1.000000,0.000000,-0.000000,-1.000000,341.972586,296.448663)"
       ry="7.3173642"
       rx="7.3173637"
       cy="-3.551333"
       cx="2.8224118"
       id="ellipse0602"
       style="opacity:1;fill:#00008b;fill-opacity:1;fill-rule:nonzero;stroke:#00008b;stroke-width:0.36527172;stroke-linejoin:round;stroke-miterlimit:4;stroke-dasharray:1.09581519, 1.09581519;stroke-dashoffset:0;stroke-opacity:1" />
    <ellipse
       transform="matrix(-1.000000,0.000000,-0.000000,-1.000000,327.337859,296.448663)"
       ry="7.3173642"
       rx="7.3173637"
       cy="-3.551333"
       cx="2.8224118"
       id="ellipse2395"
       style="opacity:1;fill:#00008b;fill-opacity:1;fill-rule:nonzero;stroke:#00008b;stroke-width:0.36527172;stroke-linejoin:round;stroke-miterlimit:4;stroke-dasharray:1.09581519, 1.09581519;stroke-dashoffset:0;stroke-opacity:1" />
    <ellipse
       transform="matrix(-1.000000,0.000000,-0.000000,-1.000000,312.703132,296.448663)"
       ry="7.3173642"
       rx="7.3173637"
       cy="-3.551333"
       cx="2.8224118"
       id="ellipse8354"
       style="opacity:1;fill:#00008b;fill-opacity:1;fill-rule:nonzero;stroke:#00008b;stroke-width:0.36527172;stroke-linejoin:round;stroke-miterlimit:4;stroke-dasharray:1.09581519, 1.09581519;stroke-dashoffset:0;stroke-opacity:1" />
    <ellipse
       transform="matrix(-1.000000,0.000000,-0.000000,-1.000000,298.068404,296.448663)"
       ry="7.3173642"
       rx="7.3173637"
       cy="-3.551333"
       cx="2.8224118"
       id="ellipse7985"
       style="opacity:1;fill:#00008b;fill-opacity:1;fill-rule:nonzero;stroke:#00008b;stroke-width:0.36527172;stroke-linejoin:round;stroke-miterlimit:4;stroke-dasharray:1.09581519, 1.09581519;stroke-dashoffset:0;stroke-opacity:1" />
    <ellipse
       transform="matrix(-1.000000,0.000000,-0.000000,-1.000000,283.433677,296.448663)"
       ry="7.3173642"
       rx="7.3173637"
       cy="-3.551333"
       cx="2.8224118"
       id="ellipse5878"
       style="opacity:1;fill:#00008b;fill-opacity:1;fill-rule:nonzero;stroke:#00008b;stroke-width:0.36527172;stroke-linejoin:round;stroke-miterlimit:4;stroke-dasharray:1.09581519, 1.09581519;stroke-dashoffset:0;stroke-opacity:1" />
    <ellipse
       transform="matrix(-1.000000,0.000000,-0.000000,-1.000000,268.798949,296.448663)"
       ry="7.3173642"
       rx="7.3173637"
       cy="-3.551333"
       cx="2.8224118"
       id="ellipse9847"
       style="opacity:1;fill:#00008b;fill-opacity:1;fill-rule:nonzero;stroke:#00008b;stroke-width:0.36527172;stroke-linejoin:round;stroke-miterlimit:4;stroke-dasharray:1.09581519, 1.09581519;stroke-dashoffset:0;stroke-opacity:1" />
    <ellipse
       transform="matrix(-1.000000,0.000000,-0.000000,-1.000000,254.164222,296.448663)"
       ry="7.3173642"
       rx="7.3173637"
       cy="-3.551333"
       cx="2.8224118"
       id="ellipse8592"
       style="opacity:1;fill:#00008b;fill-opacity:1;fill-rule:nonzero;stroke:#00008b;stroke-width:0.36527172;stroke-linejoin:round;stroke-miterlimit:4;stroke-dasharray:1.09581519, 1.09581519;stroke-dashoffset:0;stroke-opacity:1" />
    <ellipse
       transform="matrix(-1.000000,0.000000,-0.000000,-1.000000,239.529495,296.448663)"
       ry="7.3173642"
       rx="7.3173637"
       cy="-3.551333"
       cx="2.8224118"
       id="ellipse5714"
       style="opacity:1;fill:#00008b;fill-opacity:1;fill-rule:nonzero;stroke:#00008b;stroke-width:0.36527172;stroke-linejoin:round;stroke-miterlimit:4;stroke-dasharray:1.09581519, 1.09581519;stroke-dashoffset:0;stroke-opacity:1" />
    <ellipse
       transform="matrix(-1.000000,0.000000,-0.000000,-1.000000,224.894767,296.448663)"
       ry="7.3173642"
       rx="7.3173637"
       cy="-3.551333"
       cx="2.8224118"
       id="ellipse8123"
       style="opacity:1;fill:#00008b;fill-opacity:1;fill-rule:nonzero;stroke:#00008b;stroke-width:0.36527172;stroke-linejoin:round;stroke-miterlimit:4;stroke-dasharray:1.09581519, 1.09581519;stroke-dashoffset:0;stroke-opacity:1" />
    <ellipse
       transform="matrix(-1.000000,0.000000,-0.000000,-1.000000,210.260040,296.448663)"
       ry="7.3173642"
       rx="7.3173637"
       cy="-3.551333"
       cx="2.8224118"
       id="ellipse5935"
       style="opacity:1;fill:#00008b;fill-opacity:1;fill-rule:nonzero;stroke:#00008b;stroke-width:0.36527172;stroke-linejoin:round;stroke-miterlimit:4;stroke-dasharray:1.09581519, 1.09581519;stroke-dashoffset:0;stroke-opacity:1" />
    <ellipse
       transform="matrix(-1.000000,0.000000,-0.000000,-1.000000,195.625312,296.448663)"
       ry="7.3173642"
       rx="7.3173637"
       cy="-3.551333"
       cx="2.8224118"
       id="ellipse8465"
       style="opacity:1;fill:#00008b;fill-opacity:1;fill-rule:nonzero;stroke:#00008b;stroke-width:0.36527172;stroke-linejoin:round;stroke-miterlimit:4;stroke-dasharray:1.09581519, 1.09581519;stroke-dashoffset:0;stroke-opacity:1" />
    <ellipse
       transform="matrix(-1.000000,0.000000,-0.000000,-1.000000,180.990585,296.448663)"
       ry="7.3173642"
       rx="7.3173637"
       cy="-3.551333"
       cx="2.8224118"
       id="ellipse1328"
       style="opacity:1;fill:#00008b;fill-opacity:1;fill-rule:nonzero;stroke:#00008b;stroke-width:0.36527172;stroke-linejoin:round;stroke-miterlimit:4;stroke-dasharray:1.09581519, 1.09581519;stroke-dashoffset:0;stroke-opacity:1" />
    <ellipse
       transform="matrix(-1.000000,0.000000,-0.000000,-1.000000,166.355858,296.448663)"
       ry="7.3173642"
       rx="7.3173637"
       cy="-3.551333"
       cx="2.8224118"
       id="ellipse0442"
       style="opacity:1;fill:#00008b;fill-opacity:1;fill-rule:nonzero;stroke:#00008b;stroke-width:0.36527172;stroke-linejoin:round;stroke-miterlimit:4;stroke-dasharray:1.09581519, 1.09581519;stroke-dashoffset:0;stroke-opacity:1" />
    <ellipse
       transform="matrix(-1.000000,0.000000,-0.000000,-1.000000,151.721130,296.448663)"
       ry="7.3173642"
       rx="7.3173637"
       cy="-3.551333"
       cx="2.8224118"
       id="ellipse6392"
       style="opacity:1;fill:#00008b;fill-opacity:1;fill-rule:nonzero;stroke:#00008b;stroke-width:0.36527172;stroke-linejoin:round;stroke-miterlimit:4;stroke-dasharray:1.09581519, 1.09581519;stroke-dashoffset:0;stroke-opacity:1" />
    <ellipse
       transform="matrix(-1.000000,0.000000,-0.000000,-1.000000,137.086403,296.448663)"
       ry="7.3173642"
       rx="7.3173637"
       cy="-3.551333"
       cx="2.8224118"
       id="ellipse5119"
       style="opacity:1;fill:#00008b;fill-opacity:1;fill-rule:nonzero;stroke:#00008b;stroke-width:0.36527172;stroke-linejoin:round;stroke-miterlimit:4;stroke-dasharray:1.09581519, 1.09581519;stroke-dashoffset:0;stroke-opacity:1" />
    <ellipse
       transform="matrix(-1.000000,0.000000,-0.000000,-1.000000,122.451675,296.448663)"
       ry="7.3173642"
       rx="7.3173637"
       cy="-3.551333"
       cx="2.8224118"
       id="ellipse6115"
       style="opacity:1;fill:#00008b;fill-opacity:1;fill-rule:nonzero;stroke:#00008b;stroke-width:0.36527172;stroke-linejoin:round;stroke-miterlimit:4;stroke-dasharray:1.09581519, 1.09581519;stroke-dashoffset:0;stroke-opacity:1" />
    <ellipse
       transform="matrix(-1.000000,0.000000,-0.000000,-1.000000,107.816948,296.448663)"
       ry="7.3173642"
       rx="7.3173637"
       cy="-3.551333"
       cx="2.8224118"
       id="ellipse8948"
       style="opacity:1;fill:#00008b;fill-opacity:1;fill-rule:nonzero;stroke:#00008b;stroke-width:0.36527172;stroke-linejoin:round;stroke-miterlimit:4;stroke-dasharray:1.09581519, 1.09581519;stroke-dashoffset:0;stroke-opacity:1" />
    <ellipse
       transform="matrix(-1.000000,0.000000,-0.000000,-1.000000,93.182221,296.448663)"
       ry="7.3173642"
       rx="7.3173637"
       cy="-3.551333"
       cx="2.8224118"
       id="ellipse9443"
       style="opacity:1;fill:#00008b;fill-opacity:1;fill-rule:nonzero;stroke:#00008b;stroke-width:0.36527172;stroke-linejoin:round;stroke-miterlimit:4;stroke-dasharray:1.09581519, 1.09581519;stroke-dashoffset:0;stroke-opacity:1" />
    <ellipse
       transform="matrix(-1.000000,0.000000,-0.000000,-1.000000,78.547493,296.448663)"
       ry="7.3173642"
       rx="7.3173637"
       cy="-3.551333"
       cx="2.8224118"
       id="ellipse5732"
       style="opacity:1;fill:#00008b;fill-opacity:1;fill-rule:nonzero;stroke:#00008b;stroke-width:0.36527172;stroke-linejoin:round;stroke-miterlimit:4;stroke-dasharray:1.09581519, 1.09581519;stroke-dashoffset:0;stroke-opacity:1" />
    <ellipse
       transform="matrix(-1.000000,0.000000,-0.000000,-1.000000,63.912766,296.448663)"
       ry="7.3173642"
       rx="7.3173637"
       cy="-3.551333"
       cx="2.8224118"
       id="ellipse4046"
       style="opacity:1;fill:#00008b;fill-opacity:1;fill-rule:nonzero;stroke:#00008b;stroke-width:0.36527172;stroke-linejoin:round;stroke-miterlimit:4;stroke-dasharray:1.09581519, 1.09581519;stroke-dashoffset:0;stroke-opacity:1" />
    <ellipse
       transform="matrix(-1.000000,0.000000,-0.000000,-1.000000,49.278038,296.448663)"
       ry="7.3173642"
       rx="7.3173637"
       cy="-3.551333"
       cx="2.8224118"
       id="ellipse5791"
       style="opacity:1;fill:#00008b;fill-opacity:1;fill-rule:nonzero;stroke:#00008b;stroke-width:0.36527172;stroke-linejoin:round;stroke-miterlimit:4;stroke-dasharray:1.09581519, 1.09581519;stroke-dashoffset:0;stroke-opacity:1" />
    <ellipse
       transform="matrix(-1.000000,0.000000,-0.000000,-1.000000,34.643311,296.448663)"
       ry="7.3173642"
       rx="7.3173637"
       cy="-3.551333"
       cx="2.8224118"
       id="ellipse5872"
       style="opacity:1;fill:#00008b;fill-opacity:1;fill-rule:nonzero;stroke:#00008b;stroke-width:0.36527172;stroke-linejoin:round;stroke-miterlimit:4;stroke-dasharray:1.09581519, 1.09581519;stroke-dashoffset:0;stroke-opacity:1" />
    <ellipse
       transform="matrix(-1.000000,0.000000,-0.000000,-1.000000,20.008584,296.448663)"
       ry="7.3173642"
       rx="7.3173637"
       cy="-3.551333"
       cx="2.8224118"
       id="ellipse7029"
       style="opacity:1;fill:#00008b;fill-opacity:1;fill-rule:nonzero;stroke:#00008b;stroke-width:0.36527172;stroke-linejoin:round;stroke-miterlimit:4;stroke-dasharray:1.09581519, 1.09581519;stroke-dashoffset:0;stroke-opacity:1" />
    <ellipse
       transform="matrix(-1.000000,0.000000,-0.000000,-1.000000,5.373856,296.448663)"
       ry="7.3173642"
       rx="7.3173637"
       cy="-3.551333"
       cx="2.8224118"
       id="ellipse3822"
       style="opacity:1;fill:#00008b;fill-opacity:1;fill-rule:nonzero;stroke:#00008b;stroke-width:0.36527172;stroke-linejoin:round;stroke-miterlimit:4;stroke-dasharray:1.09581519, 1.09581519;stroke-dashoffset:0;stroke-opacity:1" />
    <ellipse
       transform="matrix(0.000000,-1.000000,1.000000,0.000000,3.868636,290.421822)"
       ry="7.3173642"
       rx="7.3173637"
       cy="-3.551333"
       cx="2.8224118"
       id="ellipse9477"
       style="opacity:1;fill:#00008b;fill-opacity:1;fill-rule:nonzero;stroke:#00008b;stroke-width:0.36527172;stroke-linejoin:round;stroke-miterlimit:4;stroke-dasharray:1.09581519, 1.09581519;stroke-dashoffset:0;stroke-opacity:1" />
    <ellipse
       transform="matrix(0.000000,-1.000000,1.000000,0.000000,3.868636,275.787094)"
       ry="7.3173642"
       rx="7.3173637"
       cy="-3.551333"
       cx="2.8224118"
       id="ellipse8404"
       style="opacity:1;fill:#00008b;fill-opacity:1;fill-rule:nonzero;stroke:#00008b;stroke-width:0.36527172;stroke-linejoin:round;stroke-miterlimit:4;stroke-dasharray:1.09581519, 1.09581519;stroke-dashoffset:0;stroke-opacity:1" />
    <ellipse
       transform="matrix(0.000000,-1.000000,1.000000,0.000000,3.868636,261.152367)"
       ry="7.3173642"
       rx="7.3173637"
       cy="-3.551333"
       cx="2.8224118"
       id="ellipse8549"
       style="opacity:1;fill:#00008b;fill-opacity:1;fill-rule:nonzero;stroke:#00008b;stroke-width:0.36527172;stroke-linejoin:round;stroke-miterlimit:4;stroke-dasharray:1.09581519, 1.09581519;stroke-dashoffset:0;stroke-opacity:1" />
    <ellipse
       transform="matrix(0.000000,-1.000000,1.000000,0.000000,3.868636,246.517640)"
       ry="7.3173642"
       rx="7.3173637"
       cy="-3.551333"
       cx="2.8224118"
       id="ellipse3538"
       style="opacity:1;fill:#00008b;fill-opacity:1;fill-rule:nonzero;stroke:#00008b;stroke-width:0.36527172;stroke-linejoin:round;stroke-miterlimit:4;stroke-dasharray:1.09581519, 1.09581519;stroke-dashoffset:0;stroke-opacity:1" />
    <ellipse
       transform="matrix(0.000000,-1.000000,1.000000,0.000000,3.868636,231.882912)"
       ry="7.3173642"
       rx="7.3173637"
       cy="-3.551333"
       cx="2.8224118"
       id="ellipse9574"
       style="opacity:1;fill:#00008b;fill-opacity:1;fill-rule:nonzero;stroke:#00008b;stroke-width:0.36527172;stroke-linejoin:round;stroke-miterlimit:4;stroke-dasharray:1.09581519, 1.09581519;stroke-dashoffset:0;stroke-opacity:1" />
    <ellipse
       transform="matrix(0.000000,-1.000000,1.000000,0.000000,3.868636,217.248185)"
       ry="7.3173642"
       rx="7.3173637"
       cy="-3.551333"
       cx="2.8224118"
       id="ellipse6733"
       style="opacity:1;fill:#00008b;fill-opacity:1;fill-rule:nonzero;stroke:#00008b;stroke-width:0.36527172;stroke-linejoin:round;stroke-miterlimit:4;stroke-dasharray:1.09581519, 1.09581519;stroke-dashoffset:0;stroke-opacity:1" />
    <ellipse
       transform="matrix(0.000000,-1.000000,1.000000,0.000000,3.868636,202.613457)"
       ry="7.3173642"
       rx="7.3173637"
       cy="-3.551333"
       cx="2.8224118"
       id="ellipse3621"
       style="opacity:1;fill:#00008b;fill-opacity:1;fill-rule:nonzero;stroke:#00008b;stroke-width:0.36527172;stroke-linejoin:round;stroke-miterlimit:4;stroke-dasharray:1.09581519, 1.09581519;stroke-dashoffset:0;stroke-opacity:1" />
    <ellipse
       transform="matrix(0.000000,-1.000000,1.000000,0.000000,3.868636,187.978730)"
       ry="7.3173642"
       rx="7.3173637"
       cy="-3.551333"
       cx="2.8224118"
       id="ellipse3305"
       style="opacity:1;fill:#00008b;fill-opacity:1;fill-rule:nonzero;stroke:#00008b;stroke-width:0.36527172;stroke-linejoin:round;stroke-miterlimit:4;stroke-dasharray:1.09581519, 1.09581519;stroke-dashoffset:0;stroke-opacity:1" />
    <ellipse
       transform="matrix(0.000000,-1.000000,1.000000,0.000000,3.868636,173.344003)"
       ry="7.3173642"
       rx="7.3173637"
       cy="-3.551333"
       cx="2.8224118"
       id="ellipse9948"
       style="opacity:1;fill:#00008b;fill-opacity:1;fill-rule:nonzero;stroke:#00008b;stroke-width:0.36527172;stroke-linejoin:round;stroke-miterlimit:4;stroke-dasharray:1.09581519, 1.09581519;stroke-dashoffset:0;stroke-opacity:1" />
    <ellipse
       transform="matrix(0.000000,-1.000000,1.000000,0.000000,3.868636,158.709275)"
       ry="7.3173642"
       rx="7.3173637"
       cy="-3.551333"
       cx="2.8224118"
       id="ellipse2859"
       style="opacity:1;fill:#00008b;fill-opacity:1;fill-rule:nonzero;stroke:#00008b;stroke-width:0.36527172;stroke-linejoin:round;stroke-miterlimit:4;stroke-dasharray:1.09581519, 1.09581519;stroke-dashoffset:0;stroke-opacity:1" />
    <ellipse
       transform="matrix(0.000000,-1.000000,1.000000,0.000000,3.868636,144.074548)"
       ry="7.3173642"
       rx="7.3173637"
       cy="-3.551333"
       cx="2.8224118"
       id="ellipse6377"
       style="opacity:1;fill:#00008b;fill-opacity:1;fill-rule:nonzero;stroke:#00008b;stroke-width:0.36527172;stroke-linejoin:round;stroke-miterlimit:4;stroke-dasharray:1.09581519, 1.09581519;stroke-dashoffset:0;stroke-opacity:1" />
    <ellipse
       transform="matrix(0.000000,-1.000000,1.000000,0.000000,3.868636,129.439820)"
       ry="7.3173642"
       rx="7.3173637"
       cy="-3.551333"
       cx="2.8224118"
       id="ellipse3710"
       style="opacity:1;fill:#00008b;fill-opacity:1;fill-rule:nonzero;stroke:#00008b;stroke-width:0.36527172;stroke-linejoin:round;stroke-miterlimit:4;stroke-dasharray:1.09581519, 1.09581519;stroke-dashoffset:0;stroke-opacity:1" />
    <ellipse
       transform="matrix(0.000000,-1.000000,1.000000,0.000000,3.868636,114.805093)"
       ry="7.3173642"
       rx="7.3173637"
       cy="-3.551333"
       cx="2.8224118"
       id="ellipse8453"
       style="opacity:1;fill:#00008b;fill-opacity:1;fill-rule:nonzero;stroke:#00008b;stroke-width:0.36527172;stroke-linejoin:round;stroke-miterlimit:4;stroke-dasharray:1.09581519, 1.09581519;stroke-dashoffset:0;stroke-opacity:1" />
    <ellipse
       transform="matrix(0.000000,-1.000000,1.000000,0.000000,3.868636,100.170366)"
       ry="7.3173642"
       rx="7.3173637"
       cy="-3.551333"
       cx="2.8224118"
       id="ellipse9081"
       style="opacity:1;fill:#00008b;fill-opacity:1;fill-rule:nonzero;stroke:#00008b;stroke-width:0.36527172;stroke-linejoin:round;stroke-miterlimit:4;stroke-dasharray:1.09581519, 1.09581519;stroke-dashoffset:0;stroke-opacity:1" />
    <ellipse
       transform="matrix(0.000000,-1.000000,1.000000,0.000000,3.868636,85.535638)"
       ry="7.3173642"
       rx="7.3173637"
       cy="-3.551333"
       cx="2.8224118"
       id="ellipse5973"
       style="opacity:1;fill:#00008b;fill-opacity:1;fill-rule:nonzero;stroke:#00008b;stroke-width:0.36527172;stroke-linejoin:round;stroke-miterlimit:4;stroke-dasharray:1.09581519, 1.09581519;stroke-dashoffset:0;stroke-opacity:1" />
    <ellipse
       transform="matrix(0.000000,-1.000000,1.000000,0.000000,3.868636,70.900911)"
       ry="7.3173642"
       rx="7.3173637"
       cy="-3.551333"
       cx="2.8224118"
       id="ellipse8793"
       style="opacity:1;fill:#00008b;fill-opacity:1;fill-rule:nonzero;stroke:#00008b;stroke-width:0.36527172;stroke-linejoin:round;stroke-miterlimit:4;stroke-dasharray:1.09581519, 1.09581519;stroke-dashoffset:0;stroke-opacity:1" />
    <ellipse
       transform="matrix(0.000000,-1.000000,1.000000,0.000000,3.868636,56.266183)"
       ry="7.3173642"
       rx="7.3173637"
       cy="-3.551333"
       cx="2.8224118"
       id="ellipse8306"
       style="opacity:1;fill:#00008b;fill-opacity:1;fill-rule:nonzero;stroke:#00008b;stroke-width:0.36527172;stroke-linejoin:round;stroke-miterlimit:4;stroke-dasharray:1.09581519, 1.09581519;stroke-dashoffset:0;stroke-opacity:1" />
    <ellipse
       transform="matrix(0.000000,-1.000000,1.000000,0.000000,3.868636,41.631456)"
       ry="7.3173642"
       rx="7.3173637"
       cy="-3.551333"
       cx="2.8224118"
       id="ellipse2824"
       style="opacity:1;fill:#00008b;fill-opacity:1;fill-rule:nonzero;stroke:#00008b;stroke-width:0.36527172;stroke-linejoin:round;stroke-miterlimit:4;stroke-dasharray:1.09581519, 1.09581519;stroke-dashoffset:0;stroke-opacity:1" />
    <ellipse
       transform="matrix(0.000000,-1.000000,1.000000,0.000000,3.868636,26.996729)"
       ry="7.3173642"
       rx="7.3173637"
       cy="-3.551333"
       cx="2.8224118"
       id="ellipse1465"
       style="opacity:1;fill:#00008b;fill-opacity:1;fill-rule:nonzero;stroke:#00008b;stroke-width:0.36527172;stroke-linejoin:round;stroke-miterlimit:4;stroke-dasharray:1.09581519, 1.09581519;stroke-dashoffset:0;stroke-opacity:1" />
    <ellipse
       transform="matrix(0.000000,-1.000000,1.000000,0.000000,3.868636,12.362001)"
       ry="7.3173642"
       rx="7.3173637"
       cy="-3.551333"
       cx="2.8224118"
       id="ellipse6113"
       style="opacity:1;fill:#00008b;fill-opacity:1;fill-rule:nonzero;stroke:#00008b;stroke-width:0.36527172;stroke-linejoin:round;stroke-miterlimit:4;stroke-dasharray:1.09581519, 1.09581519;stroke-dashoffset:0;stroke-opacity:1" />
  </g>
</svg>
