<?xml version="1.0" encoding="UTF-8" standalone="no"?>
<!-- Created with Inkscape (http://www.inkscape.org/) -->

<svg
   xmlns:dc="http://purl.org/dc/elements/1.1/"
   xmlns:cc="http://creativecommons.org/ns#"
   xmlns:rdf="http://www.w3.org/1999/02/22-rdf-syntax-ns#"
   xmlns:svg="http://www.w3.org/2000/svg"
   xmlns="http://www.w3.org/2000/svg"
   xmlns:sodipodi="http://sodipodi.sourceforge.net/DTD/sodipodi-0.dtd"
   xmlns:inkscape="http://www.inkscape.org/namespaces/inkscape"
   version="1.1"
   id="svg4583"
   width="368"
   height="193.06667"
   viewBox="0 0 368 193.06667"
   sodipodi:docname="makerclub.svg"
   inkscape:export-filename="C:\Users\Danielle\Documents\GitHub\dtail080.github.io\makerclub.png"
   inkscape:export-xdpi="96"
   inkscape:export-ydpi="96"
   inkscape:version="0.92.1 r15371">
  <metadata
     id="metadata4589">
    <rdf:RDF>
      <cc:Work
         rdf:about="">
        <dc:format>image/svg+xml</dc:format>
        <dc:type
           rdf:resource="http://purl.org/dc/dcmitype/StillImage" />
        <dc:title></dc:title>
      </cc:Work>
    </rdf:RDF>
  </metadata>
  <defs
     id="defs4587" />
  <sodipodi:namedview
     pagecolor="#ffffff"
     bordercolor="#666666"
     borderopacity="1"
     objecttolerance="10"
     gridtolerance="10"
     guidetolerance="10"
     inkscape:pageopacity="0"
     inkscape:pageshadow="2"
     inkscape:window-width="1916"
     inkscape:window-height="989"
     id="namedview4585"
     showgrid="false"
     inkscape:zoom="0.92119565"
     inkscape:cx="184"
     inkscape:cy="96.533333"
     inkscape:window-x="2553"
     inkscape:window-y="634"
     inkscape:window-maximized="1"
     inkscape:current-layer="svg4583" />
  <path
     style="fill:#336666;stroke-width:1.06666672;fill-opacity:1"
     d="m 75.789968,190.31008 c -21.25923,-4.60377 -39.28251,-22.2703 -44.26072,-43.38467 -2.25713,-9.57328 -2.25547,-66.722287 0.002,-76.298057 1.71976,-7.29422 5.63683,-15.81261 9.85362,-21.4285 l 2.68981,-3.58227 -7.99881,-7.99881 c -7.09194,-7.09195 -8.24899,-7.8649 -10.20565,-6.81773 -5.92958,3.17341 -14.77391,0.21901 -19.8490404,-6.63047 -3.07843,-4.15471 -3.09531,-13.27491 -0.0322,-17.3776597 4.0670904,-5.44742 7.6313004,-7.34412997 13.8007604,-7.34412997 6.16909,0 9.73295,1.89633997 13.80076,7.34341997 2.29861,3.07799 3.04934,12.1522597 1.30356,15.7563797 -0.64298,1.3274 0.91855,3.6472 6.28255,9.33333 3.92601,4.16178 7.54387,7.56687 8.03968,7.56687 0.49581,0 3.88305,-1.92708 7.52719,-4.2824 3.64415,-2.35533 9.78034,-5.35533 13.63599,-6.66667 l 7.01027,-2.38426 119.674302,-0.29321 c 102.25473,-0.25052 120.77457,-0.0638 127.23331,1.2829 22.59766,4.71174 40.625,22.62641 45.38802,45.10433 2.1646,10.21527 2.1646,62.930027 0,73.145297 -2.39564,11.30566 -7.46087,20.48669 -16.016,29.02992 -12.7299,12.7122 -25.91395,17.58189 -47.47963,17.53715 -10.68793,-0.0222 -11.03818,-0.0935 -7.66083,-1.56047 1.94655,-0.84548 4.90064,-2.50668 6.56466,-3.69158 1.66402,-1.18489 4.66325,-2.15434 6.66493,-2.15434 24.7002,0 46.75508,-18.52111 50.97702,-42.80917 0.81152,-4.66856 1.08362,-17.36976 0.79978,-37.33333 -0.40132,-28.227437 -0.59336,-30.706727 -2.86225,-36.953127 -5.12144,-14.09971 -17.66919,-26.46409 -31.81519,-31.35026 l -7.20145,-2.48744 h -65.6 -65.6 v 4.26666 4.26667 l 66.66667,0.53333 66.66666,0.53334 6.4,3.13447 c 8.16763,4.0002 16.332,12.16457 20.3322,20.3322 l 3.13447,6.4 v 35.733327 35.73333 l -3.13447,6.4 c -6.11598,12.48766 -19.06009,22.07568 -31.82884,23.5764 -5.82634,0.68477 -5.85537,0.67388 -5.34324,-2.00512 0.42441,-2.22015 1.29474,-2.81057 4.95138,-3.35891 11.10329,-1.66505 22.20194,-10.16745 27.25455,-20.87903 l 2.76729,-5.86667 v -33.6 -33.599997 l -2.76729,-5.86667 c -3.50361,-7.4277 -10.11677,-14.03164 -17.85814,-17.83327 l -6.04124,-2.96673 h -65.6 -65.6 v 19.2 19.2 l 2.77964,0.32269 c 2.36611,0.27468 3.39758,-0.63639 6.93333,-6.12401 l 4.1537,-6.44669 5.6,-0.009 c 3.08,-0.005 5.6,0.29196 5.6,0.66021 0,0.36824 -2.4,3.90695 -5.33334,7.8638 -2.93333,3.95687 -5.33333,7.79687 -5.33333,8.53335 0,0.73649 2.4,4.57649 5.33333,8.533337 2.93334,3.95684 5.33334,7.49556 5.33334,7.86379 0,0.36825 -2.52,0.66534 -5.6,0.66021 l -5.6,-0.01 -4.1537,-6.4467 c -3.53575,-5.487607 -4.56722,-6.398677 -6.93333,-6.123997 l -2.77964,0.32331 v 36.266667 36.26667 l 36,0.28085 c 20.56002,0.1604 36,0.69484 36,1.24609 0,0.53089 0.2953,1.73477 0.65621,2.67531 0.59951,1.56229 -7.39685,1.68505 -92.53333,1.42057 l -93.189552,-0.28949 -6.09927,-2.85873 c -12.87872,-6.03626 -22.25701,-18.58266 -24.26287,-32.4592 -1.33949,-9.26659 -1.38882,-50.951767 -0.0711,-60.068457 2.04997,-14.18263 11.45375,-26.91794 24.33395,-32.95489 l 6.09927,-2.85872 51.466672,-0.30553 51.46667,-0.30552 v -4.76114 -4.76115 l -46.66667,0.008 c -27.49641,0.005 -49.506322,0.46877 -53.579312,1.12957 -19.5234,3.1675 -35.97193,18.32831 -41.05409,37.84003 -2.36142,9.06612 -2.36142,64.445237 0,73.511357 3.58992,13.7826 13.25119,26.07313 25.85656,32.89325 11.11422,6.01333 11.71081,6.04569 111.832992,6.06588 90.53527,0.0182 91.89555,0.0495 94.59585,2.17357 1.50684,1.18528 4.33157,2.84649 6.27718,3.69159 5.24485,2.27808 -191.269732,2.22842 -201.795852,-0.0511 z M 180.32331,108.74155 V 47.901963 l -50.42472,0.30625 -50.424702,0.30624 -7.13052,3.51147 c -7.7549,3.81894 -13.17392,9.27803 -17.08165,17.20792 -2.30998,4.68763 -2.41792,6.15887 -2.72975,37.208117 -0.36467,36.311 0.0716,39.45504 6.72333,48.45657 4.35493,5.89333 10.18825,10.02411 17.93658,12.70155 4.99708,1.72676 10.24559,1.91476 54.331432,1.94621 l 48.8,0.0348 z m -43.55324,51.8125 c -5.77915,-1.83342 -8.478,-4.2041 -10.97398,-9.6396 -4.45447,-9.70046 -1.13701,-22.20534 7.14057,-26.91578 9.27315,-5.27699 22.72467,-2.13407 27.52019,6.43 2.2369,3.99479 2.23946,4.0678 0.19592,5.6 -3.07568,2.30608 -6.53042,1.88875 -8.43567,-1.01903 -2.55893,-3.90543 -8.13879,-5.37856 -12.87578,-3.39932 -4.53186,1.89354 -6.37063,5.75165 -5.58922,11.72733 0.77432,5.92149 3.88987,8.64347 9.89319,8.64347 3.98202,0 5.31971,-0.53128 7.38588,-2.93333 2.91486,-3.38874 5.68997,-3.71542 8.97376,-1.05637 l 2.31796,1.87697 -2.48053,3.72303 c -4.38258,6.57781 -14.58268,9.65594 -23.07229,6.96263 z m 14.53954,-3.13825 c 1.5842,-0.82426 4.06779,-2.76954 5.51908,-4.32285 2.22049,-2.37658 2.38956,-2.98176 1.06667,-3.81835 -2.05963,-1.30248 -3.17205,-1.28302 -3.17205,0.0556 0,1.98274 -6.87852,5.30962 -10.98631,5.31366 -8.49283,0.008 -12.48036,-4.43155 -12.48036,-13.89611 0,-6.64065 3.80083,-11.44577 9.80876,-12.40051 5.43027,-0.86295 8.57601,0.12562 12.20229,3.83467 3.55946,3.6407 6.85088,3.1011 4.77249,-0.78241 -4.67134,-8.72847 -20.6588,-10.06986 -27.21095,-2.28306 -7.71999,9.17468 -5.03645,23.85001 5.17452,28.29764 4.2932,1.87 11.71349,1.87084 15.30586,0.002 z M 70.472358,104.78112 c 0.01,-7.878997 0.5108,-13.511727 1.34888,-15.167987 3.66101,-7.23512 15.83369,-10.03565 21.69744,-4.99187 l 2.91434,2.50681 3.693992,-2.50681 c 6.7921,-4.60923 17.69556,-2.40135 21.25347,4.30369 1.33287,2.51186 1.77699,6.31664 1.81968,15.589497 l 0.0564,12.26667 h -4.8 -4.8 l -0.30173,-11.36516 c -0.32744,-12.335717 -1.06196,-13.968167 -6.28499,-13.968167 -4.65643,0 -5.6799,2.67954 -5.6799,14.870527 v 10.99613 h -4.800002 -4.8 v -11.60273 c 0,-12.572257 -0.69577,-14.263927 -5.86666,-14.263927 -5.17089,0 -5.86667,1.69167 -5.86667,14.263927 v 11.60273 h -4.79997 -4.8 l 0.0157,-12.53333 z m 69.765572,3.05527 c -4.33378,-2.64273 -7.01259,-8.549147 -7.07596,-15.601567 -0.0698,-7.76919 2.79741,-13.05491 8.84395,-16.30377 8.74272,-4.69755 20.92302,-1.66978 25.00015,6.21453 1.1204,2.16661 1.5839,6.512 1.5839,14.84923 v 11.786307 h -4.26666 c -3.61608,0 -4.26667,-0.33976 -4.26667,-2.22815 0,-2.1442 -0.12366,-2.12411 -3.28185,0.53333 -4.08723,3.43918 -11.57044,3.77862 -16.53686,0.75009 z m 14.4227,-8.089527 c 3.88685,-2.00996 5.68718,-6.87883 4.16166,-11.25492 -1.30055,-3.73078 -3.73343,-5.31082 -8.17735,-5.31082 -4.35093,0 -7.60082,2.98981 -8.35228,7.68385 -0.54677,3.41547 -0.19232,4.39061 2.61706,7.2 3.64886,3.648857 5.37235,3.946127 9.75091,1.68189 z m 33.12934,39.434257 v -30.4 h -2.66666 -2.66667 V 138.47 c 0,16.3289 0.32,30.0089 0.71111,30.4 0.39111,0.39112 1.59111,0.71112 2.66667,0.71112 1.85055,0 1.95555,-1.63232 1.95555,-30.4 z M 25.738688,21.396503 c 3.79897,-3.79897 3.98893,-7.48385 0.58951,-11.4358997 -4.95862,-5.76475 -13.61851,-3.11139 -15.17042,4.6481497 -0.57502,2.8751 -0.1672,3.93707 2.55869,6.66297 4.17437,4.17437 7.93361,4.21339 12.02222,0.12478 z M 281.31936,185.1634 c -5.34741,-1.98728 -8.06889,-4.51589 -10.45661,-9.71561 -1.79956,-3.91891 -1.95988,-7.83129 -1.96696,-48 -0.005,-32.626457 0.32693,-44.384467 1.30991,-46.297177 2.90721,-5.65692 10.49043,-8.58743 18.38776,-7.10588 3.57165,0.67005 3.83171,0.97463 3.52627,4.12989 -0.3042,3.14247 -0.67972,3.44784 -4.84508,3.93983 -2.48343,0.29334 -5.48343,1.36864 -6.66667,2.38956 -2.06688,1.78336 -2.15134,3.09299 -2.15134,33.360717 v 31.50451 l 3.14703,-1.6274 c 4.64113,-2.40002 12.59541,-2.04235 17.57295,0.79016 11.78262,6.70502 12.16411,26.86513 0.65251,34.48315 -4.95733,3.2806 -12.96271,4.20971 -18.50977,2.14825 z m 16.08036,-3.84319 c 9.32888,-5.68788 11.1951,-18.9821 3.88433,-27.67044 -5.00081,-5.94313 -15.57125,-6.71308 -21.67313,-1.57869 l -2.95991,2.4906 -0.74467,-22.58221 c -0.40957,-12.42023 -0.94261,-22.78015 -1.18452,-23.02206 -0.24192,-0.24191 -1.18054,-0.15561 -2.08584,0.19179 -1.42707,0.54762 -1.64522,4.43124 -1.64005,29.19845 0.003,17.23223 0.46624,30.25971 1.16604,32.83347 1.22858,4.51854 5.40987,9.76454 8.96134,11.24321 4.0799,1.6987 12.63079,1.11865 16.27641,-1.10412 z M 281.38995,178.029 c -3.0286,-1.764 -5.06664,-6.89009 -5.06664,-12.74362 0,-4.59951 0.48672,-5.95509 3.06332,-8.53168 3.58216,-3.58217 7.29026,-4.73551 12.23976,-3.80698 6.89395,1.29331 10.68592,8.41615 9.123,17.13666 -1.10701,6.17667 -4.96945,9.10619 -11.95223,9.0653 -3.04728,-0.0178 -6.38053,-0.52169 -7.40721,-1.11968 z m 14.2154,-4.09917 c 3.5642,-3.56419 4.15708,-8.84521 1.55741,-13.87242 -1.7844,-3.45065 -3.54578,-4.34296 -8.57279,-4.34296 -5.027,0 -6.78838,0.89231 -8.57279,4.34296 -4.09644,7.92166 0.47933,16.99038 8.57279,16.99038 2.88548,0 4.70701,-0.80957 7.01538,-3.11796 z m -73.02146,-18.18997 c -3.69188,-1.18004 -7.77782,-4.83086 -9.83772,-8.79008 -1.78334,-3.42765 -3.16542,-20.18676 -2.12299,-25.74338 0.68987,-3.67731 0.95647,-3.89195 4.83433,-3.89195 2.75852,0 4.31651,0.55322 4.75167,1.68724 0.35611,0.92798 0.64746,6.60431 0.64746,12.61406 0,10.04252 0.1998,11.11453 2.46875,13.24611 3.38305,3.1782 9.21919,3.10715 12.27865,-0.14949 2.07273,-2.20632 2.32101,-3.65199 2.3356,-13.6 0.009,-6.12218 0.41931,-11.76686 0.91186,-12.54371 0.53857,-0.84946 2.33902,-1.27463 4.51699,-1.06667 l 3.62148,0.3458 v 14.05881 c 0,15.21738 -0.61103,17.11497 -7.06199,21.9313 -3.08445,2.30287 -12.76766,3.36473 -17.34409,1.90196 z m 15.47621,-3.82948 c 5.24512,-2.71235 7.27897,-8.70532 7.30645,-21.52926 0.0219,-10.23003 -0.1138,-10.93333 -2.10991,-10.93333 -1.98735,0 -2.13345,0.71165 -2.13499,10.4 -0.002,12.88871 -1.74842,17.21923 -7.73168,19.17247 -3.15502,1.02995 -4.84498,1.02995 -8,0 -5.98325,-1.95324 -7.72962,-6.28376 -7.73168,-19.17247 -0.001,-9.68835 -0.14763,-10.4 -2.13498,-10.4 -1.99915,0 -2.13334,0.71111 -2.13334,11.30546 0,12.92506 1.52903,17.573 6.84796,20.81648 4.0924,2.49554 13.31422,2.67181 17.82217,0.34065 z m 69.19708,-39.99961 c -3.80892,-1.60645 -7.46721,-5.31114 -7.46721,-7.56193 0,-2.82931 4.91931,-3.73892 8.5671,-1.58412 3.66684,2.16606 7.82174,2.25173 9.52746,0.19646 2.01936,-2.43319 0.48878,-3.584167 -6.62825,-4.984357 -8.11276,-1.59609 -11.46631,-4.52586 -11.46631,-10.01734 0,-8.21231 4.95213,-11.65492 15.77413,-10.96583 6.16399,0.3925 7.2364,0.80825 9.96655,3.86381 3.85779,4.31762 3.82949,5.04648 -0.25123,6.46903 -2.6146,0.91145 -3.78568,0.82127 -5.57067,-0.42899 -2.83325,-1.98448 -8.5993,-2.05489 -10.20133,-0.12457 -1.72229,2.07524 0.37079,3.50972 6.43899,4.41295 2.72604,0.40576 6.40024,1.61576 8.16488,2.68891 5.82761,3.54398 5.39793,11.529517 -0.86978,16.164197 -3.21543,2.37766 -12.27068,3.43804 -15.98433,1.87178 z m -76.90947,-9.81758 c -4.83048,-3.226977 -7.35404,-8.543797 -7.35608,-15.498377 -0.002,-8.87183 4.08084,-14.69554 12.10776,-17.26781 11.25124,-3.60551 22.15958,3.39022 23.26576,14.92079 l 0.35816,3.73333 -13.06667,0.2995 c -14.08874,0.32292 -15.3179,0.94704 -10.59792,5.38123 2.7014,2.53783 7.07181,2.99701 10.59233,1.11288 1.79225,-0.95918 2.98579,-0.81239 5.82444,0.71632 4.18914,2.256 4.0664,3.37666 -0.7255,6.623397 -5.01708,3.39933 -15.298,3.38862 -20.40228,-0.0213 z m 17.1756,-20.127807 c 0,-3.6936 -7.45559,-5.28713 -11.49599,-2.45711 -3.90675,2.73639 -2.74343,3.67285 4.56265,3.67285 4.47789,0 6.93334,-0.43056 6.93334,-1.21574 z"
     id="path5136"
     inkscape:connector-curvature="0" />
</svg>
